<?xml version="1.0" encoding="utf-8" standalone="no"?>
<!DOCTYPE svg PUBLIC "-//W3C//DTD SVG 1.1//EN"
  "http://www.w3.org/Graphics/SVG/1.1/DTD/svg11.dtd">
<svg xmlns:xlink="http://www.w3.org/1999/xlink" width="541.485764pt" height="354.438984pt" viewBox="0 0 541.485764 354.438984" xmlns="http://www.w3.org/2000/svg" version="1.1">
 <metadata>
  <rdf:RDF xmlns:dc="http://purl.org/dc/elements/1.1/" xmlns:cc="http://creativecommons.org/ns#" xmlns:rdf="http://www.w3.org/1999/02/22-rdf-syntax-ns#">
   <cc:Work>
    <dc:type rdf:resource="http://purl.org/dc/dcmitype/StillImage"/>
    <dc:date>2026-06-09T15:06:25.076934</dc:date>
    <dc:format>image/svg+xml</dc:format>
    <dc:creator>
     <cc:Agent>
      <dc:title>Matplotlib v3.9.4, https://matplotlib.org/</dc:title>
     </cc:Agent>
    </dc:creator>
   </cc:Work>
  </rdf:RDF>
 </metadata>
 <defs>
  <style type="text/css">*{stroke-linejoin: round; stroke-linecap: butt}</style>
 </defs>
 <g id="figure_1">
  <g id="patch_1">
   <path d="M 0 354.438984 
L 541.485764 354.438984 
L 541.485764 0 
L 0 0 
z
" style="fill: #ffffff"/>
  </g>
  <g id="axes_1">
   <g id="patch_2">
    <path d="M 42.750313 318.818359 
L 534.285764 318.818359 
L 534.285764 23.178359 
L 42.750313 23.178359 
z
" style="fill: #ffffff"/>
   </g>
   <g id="PathCollection_1">
    <path d="M 204.471877 40.739647 
C 205.565337 40.739647 206.614159 40.30521 207.387353 39.532017 
C 208.160546 38.758824 208.594982 37.710002 208.594982 36.616541 
C 208.594982 35.523081 208.160546 34.474259 207.387353 33.701065 
C 206.614159 32.927872 205.565337 32.493436 204.471877 32.493436 
C 203.378416 32.493436 202.329594 32.927872 201.556401 33.701065 
C 200.783208 34.474259 200.348771 35.523081 200.348771 36.616541 
C 200.348771 37.710002 200.783208 38.758824 201.556401 39.532017 
C 202.329594 40.30521 203.378416 40.739647 204.471877 40.739647 
z
" clip-path="url(#peb9884d6f3)" style="fill: #1b6ca8; fill-opacity: 0.7; stroke: #ffffff; stroke-opacity: 0.7; stroke-width: 0.6"/>
    <path d="M 179.048661 90.813312 
C 180.142121 90.813312 181.190943 90.378876 181.964137 89.605683 
C 182.73733 88.832489 183.171766 87.783667 183.171766 86.690207 
C 183.171766 85.596746 182.73733 84.547924 181.964137 83.774731 
C 181.190943 83.001538 180.142121 82.567101 179.048661 82.567101 
C 177.9552 82.567101 176.906378 83.001538 176.133185 83.774731 
C 175.359991 84.547924 174.925555 85.596746 174.925555 86.690207 
C 174.925555 87.783667 175.359991 88.832489 176.133185 89.605683 
C 176.906378 90.378876 177.9552 90.813312 179.048661 90.813312 
z
" clip-path="url(#peb9884d6f3)" style="fill: #1b6ca8; fill-opacity: 0.7; stroke: #ffffff; stroke-opacity: 0.7; stroke-width: 0.6"/>
    <path d="M 172.318986 114.06959 
C 173.412446 114.06959 174.461268 113.635154 175.234462 112.861961 
C 176.007655 112.088767 176.442091 111.039945 176.442091 109.946485 
C 176.442091 108.853024 176.007655 107.804202 175.234462 107.031009 
C 174.461268 106.257816 173.412446 105.823379 172.318986 105.823379 
C 171.225525 105.823379 170.176703 106.257816 169.40351 107.031009 
C 168.630317 107.804202 168.19588 108.853024 168.19588 109.946485 
C 168.19588 111.039945 168.630317 112.088767 169.40351 112.861961 
C 170.176703 113.635154 171.225525 114.06959 172.318986 114.06959 
z
" clip-path="url(#peb9884d6f3)" style="fill: #1b6ca8; fill-opacity: 0.7; stroke: #ffffff; stroke-opacity: 0.7; stroke-width: 0.6"/>
    <path d="M 243.653539 143.945875 
C 244.747 143.945875 245.795822 143.511439 246.569015 142.738245 
C 247.342208 141.965052 247.776645 140.91623 247.776645 139.82277 
C 247.776645 138.729309 247.342208 137.680487 246.569015 136.907294 
C 245.795822 136.1341 244.747 135.699664 243.653539 135.699664 
C 242.560079 135.699664 241.511257 136.1341 240.738063 136.907294 
C 239.96487 137.680487 239.530434 138.729309 239.530434 139.82277 
C 239.530434 140.91623 239.96487 141.965052 240.738063 142.738245 
C 241.511257 143.511439 242.560079 143.945875 243.653539 143.945875 
z
" clip-path="url(#peb9884d6f3)" style="fill: #1b6ca8; fill-opacity: 0.7; stroke: #ffffff; stroke-opacity: 0.7; stroke-width: 0.6"/>
    <path d="M 184.282852 139.834209 
C 185.376313 139.834209 186.425135 139.399772 187.198328 138.626579 
C 187.971521 137.853386 188.405958 136.804563 188.405958 135.711103 
C 188.405958 134.617643 187.971521 133.56882 187.198328 132.795627 
C 186.425135 132.022434 185.376313 131.587997 184.282852 131.587997 
C 183.189392 131.587997 182.140569 132.022434 181.367376 132.795627 
C 180.594183 133.56882 180.159747 134.617643 180.159747 135.711103 
C 180.159747 136.804563 180.594183 137.853386 181.367376 138.626579 
C 182.140569 139.399772 183.189392 139.834209 184.282852 139.834209 
z
" clip-path="url(#peb9884d6f3)" style="fill: #1b6ca8; fill-opacity: 0.7; stroke: #ffffff; stroke-opacity: 0.7; stroke-width: 0.6"/>
    <path d="M 151.681316 156.086283 
C 152.774777 156.086283 153.823599 155.651847 154.596792 154.878654 
C 155.369985 154.10546 155.804422 153.056638 155.804422 151.963178 
C 155.804422 150.869717 155.369985 149.820895 154.596792 149.047702 
C 153.823599 148.274508 152.774777 147.840072 151.681316 147.840072 
C 150.587856 147.840072 149.539033 148.274508 148.76584 149.047702 
C 147.992647 149.820895 147.558211 150.869717 147.558211 151.963178 
C 147.558211 153.056638 147.992647 154.10546 148.76584 154.878654 
C 149.539033 155.651847 150.587856 156.086283 151.681316 156.086283 
z
" clip-path="url(#peb9884d6f3)" style="fill: #1b6ca8; fill-opacity: 0.7; stroke: #ffffff; stroke-opacity: 0.7; stroke-width: 0.6"/>
    <path d="M 162.747893 181.531033 
C 163.841353 181.531033 164.890175 181.096596 165.663369 180.323403 
C 166.436562 179.55021 166.870998 178.501388 166.870998 177.407927 
C 166.870998 176.314467 166.436562 175.265645 165.663369 174.492451 
C 164.890175 173.719258 163.841353 173.284822 162.747893 173.284822 
C 161.654432 173.284822 160.60561 173.719258 159.832417 174.492451 
C 159.059223 175.265645 158.624787 176.314467 158.624787 177.407927 
C 158.624787 178.501388 159.059223 179.55021 159.832417 180.323403 
C 160.60561 181.096596 161.654432 181.531033 162.747893 181.531033 
z
" clip-path="url(#peb9884d6f3)" style="fill: #1b6ca8; fill-opacity: 0.7; stroke: #ffffff; stroke-opacity: 0.7; stroke-width: 0.6"/>
    <path d="M 144.353448 88.104944 
C 145.446908 88.104944 146.495731 87.670508 147.268924 86.897315 
C 148.042117 86.124121 148.476554 85.075299 148.476554 83.981839 
C 148.476554 82.888378 148.042117 81.839556 147.268924 81.066363 
C 146.495731 80.293169 145.446908 79.858733 144.353448 79.858733 
C 143.259988 79.858733 142.211165 80.293169 141.437972 81.066363 
C 140.664779 81.839556 140.230342 82.888378 140.230342 83.981839 
C 140.230342 85.075299 140.664779 86.124121 141.437972 86.897315 
C 142.211165 87.670508 143.259988 88.104944 144.353448 88.104944 
z
" clip-path="url(#peb9884d6f3)" style="fill: #1b6ca8; fill-opacity: 0.7; stroke: #ffffff; stroke-opacity: 0.7; stroke-width: 0.6"/>
    <path d="M 65.092833 138.051809 
C 66.186293 138.051809 67.235116 137.617372 68.008309 136.844179 
C 68.781502 136.070986 69.215939 135.022164 69.215939 133.928703 
C 69.215939 132.835243 68.781502 131.786421 68.008309 131.013227 
C 67.235116 130.240034 66.186293 129.805598 65.092833 129.805598 
C 63.999373 129.805598 62.95055 130.240034 62.177357 131.013227 
C 61.404164 131.786421 60.969727 132.835243 60.969727 133.928703 
C 60.969727 135.022164 61.404164 136.070986 62.177357 136.844179 
C 62.95055 137.617372 63.999373 138.051809 65.092833 138.051809 
z
" clip-path="url(#peb9884d6f3)" style="fill: #1b6ca8; fill-opacity: 0.7; stroke: #ffffff; stroke-opacity: 0.7; stroke-width: 0.6"/>
    <path d="M 188.171109 175.159258 
C 189.264569 175.159258 190.313391 174.724822 191.086585 173.951629 
C 191.859778 173.178435 192.294214 172.129613 192.294214 171.036153 
C 192.294214 169.942692 191.859778 168.89387 191.086585 168.120677 
C 190.313391 167.347484 189.264569 166.913047 188.171109 166.913047 
C 187.077648 166.913047 186.028826 167.347484 185.255633 168.120677 
C 184.48244 168.89387 184.048003 169.942692 184.048003 171.036153 
C 184.048003 172.129613 184.48244 173.178435 185.255633 173.951629 
C 186.028826 174.724822 187.077648 175.159258 188.171109 175.159258 
z
" clip-path="url(#peb9884d6f3)" style="fill: #1b6ca8; fill-opacity: 0.7; stroke: #ffffff; stroke-opacity: 0.7; stroke-width: 0.6"/>
    <path d="M 136.876032 204.121755 
C 137.969492 204.121755 139.018314 203.687318 139.791507 202.914125 
C 140.564701 202.140932 140.999137 201.09211 140.999137 199.998649 
C 140.999137 198.905189 140.564701 197.856367 139.791507 197.083173 
C 139.018314 196.30998 137.969492 195.875544 136.876032 195.875544 
C 135.782571 195.875544 134.733749 196.30998 133.960556 197.083173 
C 133.187362 197.856367 132.752926 198.905189 132.752926 199.998649 
C 132.752926 201.09211 133.187362 202.140932 133.960556 202.914125 
C 134.733749 203.687318 135.782571 204.121755 136.876032 204.121755 
z
" clip-path="url(#peb9884d6f3)" style="fill: #1b6ca8; fill-opacity: 0.7; stroke: #ffffff; stroke-opacity: 0.7; stroke-width: 0.6"/>
    <path d="M 101.283529 199.150732 
C 102.376989 199.150732 103.425812 198.716296 104.199005 197.943103 
C 104.972198 197.16991 105.406635 196.121087 105.406635 195.027627 
C 105.406635 193.934166 104.972198 192.885344 104.199005 192.112151 
C 103.425812 191.338958 102.376989 190.904521 101.283529 190.904521 
C 100.190069 190.904521 99.141246 191.338958 98.368053 192.112151 
C 97.59486 192.885344 97.160423 193.934166 97.160423 195.027627 
C 97.160423 196.121087 97.59486 197.16991 98.368053 197.943103 
C 99.141246 198.716296 100.190069 199.150732 101.283529 199.150732 
z
" clip-path="url(#peb9884d6f3)" style="fill: #1b6ca8; fill-opacity: 0.7; stroke: #ffffff; stroke-opacity: 0.7; stroke-width: 0.6"/>
    <path d="M 179.347757 192.573884 
C 180.441218 192.573884 181.49004 192.139448 182.263233 191.366255 
C 183.036426 190.593061 183.470863 189.544239 183.470863 188.450779 
C 183.470863 187.357318 183.036426 186.308496 182.263233 185.535303 
C 181.49004 184.762109 180.441218 184.327673 179.347757 184.327673 
C 178.254297 184.327673 177.205475 184.762109 176.432281 185.535303 
C 175.659088 186.308496 175.224652 187.357318 175.224652 188.450779 
C 175.224652 189.544239 175.659088 190.593061 176.432281 191.366255 
C 177.205475 192.139448 178.254297 192.573884 179.347757 192.573884 
z
" clip-path="url(#peb9884d6f3)" style="fill: #1b6ca8; fill-opacity: 0.7; stroke: #ffffff; stroke-opacity: 0.7; stroke-width: 0.6"/>
    <path d="M 225.70774 199.595664 
C 226.8012 199.595664 227.850022 199.161227 228.623216 198.388034 
C 229.396409 197.614841 229.830845 196.566019 229.830845 195.472558 
C 229.830845 194.379098 229.396409 193.330276 228.623216 192.557082 
C 227.850022 191.783889 226.8012 191.349453 225.70774 191.349453 
C 224.614279 191.349453 223.565457 191.783889 222.792264 192.557082 
C 222.01907 193.330276 221.584634 194.379098 221.584634 195.472558 
C 221.584634 196.566019 222.01907 197.614841 222.792264 198.388034 
C 223.565457 199.161227 224.614279 199.595664 225.70774 199.595664 
z
" clip-path="url(#peb9884d6f3)" style="fill: #1b6ca8; fill-opacity: 0.7; stroke: #ffffff; stroke-opacity: 0.7; stroke-width: 0.6"/>
    <path d="M 144.652545 223.69855 
C 145.746005 223.69855 146.794827 223.264114 147.568021 222.49092 
C 148.341214 221.717727 148.77565 220.668905 148.77565 219.575444 
C 148.77565 218.481984 148.341214 217.433162 147.568021 216.659968 
C 146.794827 215.886775 145.746005 215.452339 144.652545 215.452339 
C 143.559084 215.452339 142.510262 215.886775 141.737069 216.659968 
C 140.963875 217.433162 140.529439 218.481984 140.529439 219.575444 
C 140.529439 220.668905 140.963875 221.717727 141.737069 222.49092 
C 142.510262 223.264114 143.559084 223.69855 144.652545 223.69855 
z
" clip-path="url(#peb9884d6f3)" style="fill: #1b6ca8; fill-opacity: 0.7; stroke: #ffffff; stroke-opacity: 0.7; stroke-width: 0.6"/>
    <path d="M 83.636826 233.061334 
C 84.730286 233.061334 85.779109 232.626898 86.552302 231.853704 
C 87.325495 231.080511 87.759932 230.031689 87.759932 228.938228 
C 87.759932 227.844768 87.325495 226.795946 86.552302 226.022753 
C 85.779109 225.249559 84.730286 224.815123 83.636826 224.815123 
C 82.543366 224.815123 81.494543 225.249559 80.72135 226.022753 
C 79.948157 226.795946 79.51372 227.844768 79.51372 228.938228 
C 79.51372 230.031689 79.948157 231.080511 80.72135 231.853704 
C 81.494543 232.626898 82.543366 233.061334 83.636826 233.061334 
z
" clip-path="url(#peb9884d6f3)" style="fill: #1b6ca8; fill-opacity: 0.7; stroke: #ffffff; stroke-opacity: 0.7; stroke-width: 0.6"/>
    <path d="M 170.075761 219.198378 
C 171.169221 219.198378 172.218043 218.763942 172.991237 217.990748 
C 173.76443 217.217555 174.198866 216.168733 174.198866 215.075272 
C 174.198866 213.981812 173.76443 212.93299 172.991237 212.159797 
C 172.218043 211.386603 171.169221 210.952167 170.075761 210.952167 
C 168.9823 210.952167 167.933478 211.386603 167.160285 212.159797 
C 166.387092 212.93299 165.952655 213.981812 165.952655 215.075272 
C 165.952655 216.168733 166.387092 217.217555 167.160285 217.990748 
C 167.933478 218.763942 168.9823 219.198378 170.075761 219.198378 
z
" clip-path="url(#peb9884d6f3)" style="fill: #1b6ca8; fill-opacity: 0.7; stroke: #ffffff; stroke-opacity: 0.7; stroke-width: 0.6"/>
    <path d="M 185.030594 235.137999 
C 186.124054 235.137999 187.172877 234.703563 187.94607 233.930369 
C 188.719263 233.157176 189.153699 232.108354 189.153699 231.014893 
C 189.153699 229.921433 188.719263 228.872611 187.94607 228.099417 
C 187.172877 227.326224 186.124054 226.891788 185.030594 226.891788 
C 183.937133 226.891788 182.888311 227.326224 182.115118 228.099417 
C 181.341925 228.872611 180.907488 229.921433 180.907488 231.014893 
C 180.907488 232.108354 181.341925 233.157176 182.115118 233.930369 
C 182.888311 234.703563 183.937133 235.137999 185.030594 235.137999 
z
" clip-path="url(#peb9884d6f3)" style="fill: #1b6ca8; fill-opacity: 0.7; stroke: #ffffff; stroke-opacity: 0.7; stroke-width: 0.6"/>
    <path d="M 173.814469 245.673712 
C 174.907929 245.673712 175.956752 245.239275 176.729945 244.466082 
C 177.503138 243.692889 177.937575 242.644066 177.937575 241.550606 
C 177.937575 240.457146 177.503138 239.408323 176.729945 238.63513 
C 175.956752 237.861937 174.907929 237.4275 173.814469 237.4275 
C 172.721009 237.4275 171.672186 237.861937 170.898993 238.63513 
C 170.1258 239.408323 169.691363 240.457146 169.691363 241.550606 
C 169.691363 242.644066 170.1258 243.692889 170.898993 244.466082 
C 171.672186 245.239275 172.721009 245.673712 173.814469 245.673712 
z
" clip-path="url(#peb9884d6f3)" style="fill: #1b6ca8; fill-opacity: 0.7; stroke: #ffffff; stroke-opacity: 0.7; stroke-width: 0.6"/>
    <path d="M 201.929555 223.337897 
C 203.023016 223.337897 204.071838 222.903461 204.845031 222.130268 
C 205.618224 221.357074 206.052661 220.308252 206.052661 219.214792 
C 206.052661 218.121331 205.618224 217.072509 204.845031 216.299316 
C 204.071838 215.526123 203.023016 215.091686 201.929555 215.091686 
C 200.836095 215.091686 199.787272 215.526123 199.014079 216.299316 
C 198.240886 217.072509 197.806449 218.121331 197.806449 219.214792 
C 197.806449 220.308252 198.240886 221.357074 199.014079 222.130268 
C 199.787272 222.903461 200.836095 223.337897 201.929555 223.337897 
z
" clip-path="url(#peb9884d6f3)" style="fill: #1b6ca8; fill-opacity: 0.7; stroke: #ffffff; stroke-opacity: 0.7; stroke-width: 0.6"/>
    <path d="M 225.109546 256.572306 
C 226.203007 256.572306 227.251829 256.13787 228.025022 255.364676 
C 228.798216 254.591483 229.232652 253.542661 229.232652 252.4492 
C 229.232652 251.35574 228.798216 250.306918 228.025022 249.533724 
C 227.251829 248.760531 226.203007 248.326095 225.109546 248.326095 
C 224.016086 248.326095 222.967264 248.760531 222.19407 249.533724 
C 221.420877 250.306918 220.986441 251.35574 220.986441 252.4492 
C 220.986441 253.542661 221.420877 254.591483 222.19407 255.364676 
C 222.967264 256.13787 224.016086 256.572306 225.109546 256.572306 
z
" clip-path="url(#peb9884d6f3)" style="fill: #1b6ca8; fill-opacity: 0.7; stroke: #ffffff; stroke-opacity: 0.7; stroke-width: 0.6"/>
    <path d="M 190.115237 250.141297 
C 191.208697 250.141297 192.25752 249.706861 193.030713 248.933667 
C 193.803906 248.160474 194.238343 247.111652 194.238343 246.018191 
C 194.238343 244.924731 193.803906 243.875909 193.030713 243.102715 
C 192.25752 242.329522 191.208697 241.895086 190.115237 241.895086 
C 189.021777 241.895086 187.972954 242.329522 187.199761 243.102715 
C 186.426568 243.875909 185.992131 244.924731 185.992131 246.018191 
C 185.992131 247.111652 186.426568 248.160474 187.199761 248.933667 
C 187.972954 249.706861 189.021777 250.141297 190.115237 250.141297 
z
" clip-path="url(#peb9884d6f3)" style="fill: #1b6ca8; fill-opacity: 0.7; stroke: #ffffff; stroke-opacity: 0.7; stroke-width: 0.6"/>
    <path d="M 102.180819 250.456182 
C 103.274279 250.456182 104.323102 250.021746 105.096295 249.248552 
C 105.869488 248.475359 106.303925 247.426537 106.303925 246.333076 
C 106.303925 245.239616 105.869488 244.190794 105.096295 243.4176 
C 104.323102 242.644407 103.274279 242.209971 102.180819 242.209971 
C 101.087359 242.209971 100.038536 242.644407 99.265343 243.4176 
C 98.49215 244.190794 98.057713 245.239616 98.057713 246.333076 
C 98.057713 247.426537 98.49215 248.475359 99.265343 249.248552 
C 100.038536 250.021746 101.087359 250.456182 102.180819 250.456182 
z
" clip-path="url(#peb9884d6f3)" style="fill: #1b6ca8; fill-opacity: 0.7; stroke: #ffffff; stroke-opacity: 0.7; stroke-width: 0.6"/>
    <path d="M 132.240033 161.917917 
C 133.333494 161.917917 134.382316 161.483481 135.155509 160.710287 
C 135.928702 159.937094 136.363139 158.888272 136.363139 157.794811 
C 136.363139 156.701351 135.928702 155.652529 135.155509 154.879336 
C 134.382316 154.106142 133.333494 153.671706 132.240033 153.671706 
C 131.146573 153.671706 130.097751 154.106142 129.324557 154.879336 
C 128.551364 155.652529 128.116928 156.701351 128.116928 157.794811 
C 128.116928 158.888272 128.551364 159.937094 129.324557 160.710287 
C 130.097751 161.483481 131.146573 161.917917 132.240033 161.917917 
z
" clip-path="url(#peb9884d6f3)" style="fill: #1b6ca8; fill-opacity: 0.7; stroke: #ffffff; stroke-opacity: 0.7; stroke-width: 0.6"/>
    <path d="M 107.863655 237.213415 
C 108.957116 237.213415 110.005938 236.778978 110.779131 236.005785 
C 111.552325 235.232592 111.986761 234.18377 111.986761 233.090309 
C 111.986761 231.996849 111.552325 230.948027 110.779131 230.174833 
C 110.005938 229.40164 108.957116 228.967204 107.863655 228.967204 
C 106.770195 228.967204 105.721373 229.40164 104.94818 230.174833 
C 104.174986 230.948027 103.74055 231.996849 103.74055 233.090309 
C 103.74055 234.18377 104.174986 235.232592 104.94818 236.005785 
C 105.721373 236.778978 106.770195 237.213415 107.863655 237.213415 
z
" clip-path="url(#peb9884d6f3)" style="fill: #1b6ca8; fill-opacity: 0.7; stroke: #ffffff; stroke-opacity: 0.7; stroke-width: 0.6"/>
    <path d="M 132.987775 309.503283 
C 134.081235 309.503283 135.130058 309.068847 135.903251 308.295654 
C 136.676444 307.52246 137.110881 306.473638 137.110881 305.380178 
C 137.110881 304.286717 136.676444 303.237895 135.903251 302.464702 
C 135.130058 301.691508 134.081235 301.257072 132.987775 301.257072 
C 131.894315 301.257072 130.845492 301.691508 130.072299 302.464702 
C 129.299106 303.237895 128.864669 304.286717 128.864669 305.380178 
C 128.864669 306.473638 129.299106 307.52246 130.072299 308.295654 
C 130.845492 309.068847 131.894315 309.503283 132.987775 309.503283 
z
" clip-path="url(#peb9884d6f3)" style="fill: #1b6ca8; fill-opacity: 0.7; stroke: #ffffff; stroke-opacity: 0.7; stroke-width: 0.6"/>
    <path d="M 169.477567 258.323374 
C 170.571028 258.323374 171.61985 257.888938 172.393043 257.115745 
C 173.166237 256.342552 173.600673 255.293729 173.600673 254.200269 
C 173.600673 253.106808 173.166237 252.057986 172.393043 251.284793 
C 171.61985 250.5116 170.571028 250.077163 169.477567 250.077163 
C 168.384107 250.077163 167.335285 250.5116 166.562092 251.284793 
C 165.788898 252.057986 165.354462 253.106808 165.354462 254.200269 
C 165.354462 255.293729 165.788898 256.342552 166.562092 257.115745 
C 167.335285 257.888938 168.384107 258.323374 169.477567 258.323374 
z
" clip-path="url(#peb9884d6f3)" style="fill: #1b6ca8; fill-opacity: 0.7; stroke: #ffffff; stroke-opacity: 0.7; stroke-width: 0.6"/>
    <path d="M 167.533439 272.945962 
C 168.6269 272.945962 169.675722 272.511526 170.448915 271.738333 
C 171.222108 270.96514 171.656545 269.916317 171.656545 268.822857 
C 171.656545 267.729396 171.222108 266.680574 170.448915 265.907381 
C 169.675722 265.134188 168.6269 264.699751 167.533439 264.699751 
C 166.439979 264.699751 165.391156 265.134188 164.617963 265.907381 
C 163.84477 266.680574 163.410334 267.729396 163.410334 268.822857 
C 163.410334 269.916317 163.84477 270.96514 164.617963 271.738333 
C 165.391156 272.511526 166.439979 272.945962 167.533439 272.945962 
z
" clip-path="url(#peb9884d6f3)" style="fill: #1b6ca8; fill-opacity: 0.7; stroke: #ffffff; stroke-opacity: 0.7; stroke-width: 0.6"/>
    <path d="M 127.15539 260.297771 
C 128.24885 260.297771 129.297673 259.863335 130.070866 259.090141 
C 130.844059 258.316948 131.278496 257.268126 131.278496 256.174665 
C 131.278496 255.081205 130.844059 254.032383 130.070866 253.25919 
C 129.297673 252.485996 128.24885 252.05156 127.15539 252.05156 
C 126.06193 252.05156 125.013107 252.485996 124.239914 253.25919 
C 123.466721 254.032383 123.032284 255.081205 123.032284 256.174665 
C 123.032284 257.268126 123.466721 258.316948 124.239914 259.090141 
C 125.013107 259.863335 126.06193 260.297771 127.15539 260.297771 
z
" clip-path="url(#peb9884d6f3)" style="fill: #1b6ca8; fill-opacity: 0.7; stroke: #ffffff; stroke-opacity: 0.7; stroke-width: 0.6"/>
    <path d="M 219.875355 277.966651 
C 220.968815 277.966651 222.017637 277.532215 222.790831 276.759022 
C 223.564024 275.985828 223.99846 274.937006 223.99846 273.843546 
C 223.99846 272.750085 223.564024 271.701263 222.790831 270.92807 
C 222.017637 270.154876 220.968815 269.72044 219.875355 269.72044 
C 218.781894 269.72044 217.733072 270.154876 216.959879 270.92807 
C 216.186686 271.701263 215.752249 272.750085 215.752249 273.843546 
C 215.752249 274.937006 216.186686 275.985828 216.959879 276.759022 
C 217.733072 277.532215 218.781894 277.966651 219.875355 277.966651 
z
" clip-path="url(#peb9884d6f3)" style="fill: #1b6ca8; fill-opacity: 0.7; stroke: #ffffff; stroke-opacity: 0.7; stroke-width: 0.6"/>
   </g>
   <g id="PathCollection_2">
    <path d="M 393.800063 191.424924 
C 394.893523 191.424924 395.942345 190.990488 396.715539 190.217295 
C 397.488732 189.444101 397.923168 188.395279 397.923168 187.301819 
C 397.923168 186.208358 397.488732 185.159536 396.715539 184.386343 
C 395.942345 183.61315 394.893523 183.178713 393.800063 183.178713 
C 392.706602 183.178713 391.65778 183.61315 390.884587 184.386343 
C 390.111394 185.159536 389.676957 186.208358 389.676957 187.301819 
C 389.676957 188.395279 390.111394 189.444101 390.884587 190.217295 
C 391.65778 190.990488 392.706602 191.424924 393.800063 191.424924 
z
" clip-path="url(#peb9884d6f3)" style="fill: #d4761f; fill-opacity: 0.7; stroke: #ffffff; stroke-opacity: 0.7; stroke-width: 0.6"/>
    <path d="M 268.029917 164.978747 
C 269.123377 164.978747 270.1722 164.54431 270.945393 163.771117 
C 271.718586 162.997924 272.153023 161.949102 272.153023 160.855641 
C 272.153023 159.762181 271.718586 158.713358 270.945393 157.940165 
C 270.1722 157.166972 269.123377 156.732535 268.029917 156.732535 
C 266.936457 156.732535 265.887634 157.166972 265.114441 157.940165 
C 264.341248 158.713358 263.906811 159.762181 263.906811 160.855641 
C 263.906811 161.949102 264.341248 162.997924 265.114441 163.771117 
C 265.887634 164.54431 266.936457 164.978747 268.029917 164.978747 
z
" clip-path="url(#peb9884d6f3)" style="fill: #d4761f; fill-opacity: 0.7; stroke: #ffffff; stroke-opacity: 0.7; stroke-width: 0.6"/>
    <path d="M 312.595319 197.718897 
C 313.68878 197.718897 314.737602 197.284461 315.510795 196.511268 
C 316.283989 195.738074 316.718425 194.689252 316.718425 193.595792 
C 316.718425 192.502331 316.283989 191.453509 315.510795 190.680316 
C 314.737602 189.907123 313.68878 189.472686 312.595319 189.472686 
C 311.501859 189.472686 310.453037 189.907123 309.679843 190.680316 
C 308.90665 191.453509 308.472214 192.502331 308.472214 193.595792 
C 308.472214 194.689252 308.90665 195.738074 309.679843 196.511268 
C 310.453037 197.284461 311.501859 197.718897 312.595319 197.718897 
z
" clip-path="url(#peb9884d6f3)" style="fill: #d4761f; fill-opacity: 0.7; stroke: #ffffff; stroke-opacity: 0.7; stroke-width: 0.6"/>
    <path d="M 511.943244 281.449765 
C 513.036704 281.449765 514.085526 281.015329 514.858719 280.242136 
C 515.631913 279.468942 516.066349 278.42012 516.066349 277.32666 
C 516.066349 276.233199 515.631913 275.184377 514.858719 274.411184 
C 514.085526 273.63799 513.036704 273.203554 511.943244 273.203554 
C 510.849783 273.203554 509.800961 273.63799 509.027768 274.411184 
C 508.254574 275.184377 507.820138 276.233199 507.820138 277.32666 
C 507.820138 278.42012 508.254574 279.468942 509.027768 280.242136 
C 509.800961 281.015329 510.849783 281.449765 511.943244 281.449765 
z
" clip-path="url(#peb9884d6f3)" style="fill: #d4761f; fill-opacity: 0.7; stroke: #ffffff; stroke-opacity: 0.7; stroke-width: 0.6"/>
    <path d="M 265.637144 268.06458 
C 266.730604 268.06458 267.779426 267.630144 268.55262 266.85695 
C 269.325813 266.083757 269.760249 265.034935 269.760249 263.941475 
C 269.760249 262.848014 269.325813 261.799192 268.55262 261.025999 
C 267.779426 260.252805 266.730604 259.818369 265.637144 259.818369 
C 264.543683 259.818369 263.494861 260.252805 262.721668 261.025999 
C 261.948475 261.799192 261.514038 262.848014 261.514038 263.941475 
C 261.514038 265.034935 261.948475 266.083757 262.721668 266.85695 
C 263.494861 267.630144 264.543683 268.06458 265.637144 268.06458 
z
" clip-path="url(#peb9884d6f3)" style="fill: #d4761f; fill-opacity: 0.7; stroke: #ffffff; stroke-opacity: 0.7; stroke-width: 0.6"/>
    <path d="M 188.619754 252.075922 
C 189.713214 252.075922 190.762036 251.641486 191.53523 250.868292 
C 192.308423 250.095099 192.742859 249.046277 192.742859 247.952816 
C 192.742859 246.859356 192.308423 245.810534 191.53523 245.037341 
C 190.762036 244.264147 189.713214 243.829711 188.619754 243.829711 
C 187.526293 243.829711 186.477471 244.264147 185.704278 245.037341 
C 184.931085 245.810534 184.496648 246.859356 184.496648 247.952816 
C 184.496648 249.046277 184.931085 250.095099 185.704278 250.868292 
C 186.477471 251.641486 187.526293 252.075922 188.619754 252.075922 
z
" clip-path="url(#peb9884d6f3)" style="fill: #d4761f; fill-opacity: 0.7; stroke: #ffffff; stroke-opacity: 0.7; stroke-width: 0.6"/>
    <path d="M 150.335381 254.12217 
C 151.428842 254.12217 152.477664 253.687733 153.250857 252.91454 
C 154.02405 252.141347 154.458487 251.092524 154.458487 249.999064 
C 154.458487 248.905604 154.02405 247.856781 153.250857 247.083588 
C 152.477664 246.310395 151.428842 245.875958 150.335381 245.875958 
C 149.241921 245.875958 148.193099 246.310395 147.419905 247.083588 
C 146.646712 247.856781 146.212276 248.905604 146.212276 249.999064 
C 146.212276 251.092524 146.646712 252.141347 147.419905 252.91454 
C 148.193099 253.687733 149.241921 254.12217 150.335381 254.12217 
z
" clip-path="url(#peb9884d6f3)" style="fill: #d4761f; fill-opacity: 0.7; stroke: #ffffff; stroke-opacity: 0.7; stroke-width: 0.6"/>
    <path d="M 287.4712 220.197677 
C 288.56466 220.197677 289.613483 219.763241 290.386676 218.990048 
C 291.159869 218.216854 291.594306 217.168032 291.594306 216.074572 
C 291.594306 214.981111 291.159869 213.932289 290.386676 213.159096 
C 289.613483 212.385902 288.56466 211.951466 287.4712 211.951466 
C 286.37774 211.951466 285.328917 212.385902 284.555724 213.159096 
C 283.782531 213.932289 283.348094 214.981111 283.348094 216.074572 
C 283.348094 217.168032 283.782531 218.216854 284.555724 218.990048 
C 285.328917 219.763241 286.37774 220.197677 287.4712 220.197677 
z
" clip-path="url(#peb9884d6f3)" style="fill: #d4761f; fill-opacity: 0.7; stroke: #ffffff; stroke-opacity: 0.7; stroke-width: 0.6"/>
    <path d="M 142.558868 103.411259 
C 143.652328 103.411259 144.701151 102.976823 145.474344 102.203629 
C 146.247537 101.430436 146.681974 100.381614 146.681974 99.288153 
C 146.681974 98.194693 146.247537 97.145871 145.474344 96.372678 
C 144.701151 95.599484 143.652328 95.165048 142.558868 95.165048 
C 141.465408 95.165048 140.416585 95.599484 139.643392 96.372678 
C 138.870199 97.145871 138.435762 98.194693 138.435762 99.288153 
C 138.435762 100.381614 138.870199 101.430436 139.643392 102.203629 
C 140.416585 102.976823 141.465408 103.411259 142.558868 103.411259 
z
" clip-path="url(#peb9884d6f3)" style="fill: #d4761f; fill-opacity: 0.7; stroke: #ffffff; stroke-opacity: 0.7; stroke-width: 0.6"/>
    <path d="M 329.494281 268.309318 
C 330.587741 268.309318 331.636563 267.874882 332.409757 267.101689 
C 333.18295 266.328496 333.617386 265.279673 333.617386 264.186213 
C 333.617386 263.092752 333.18295 262.04393 332.409757 261.270737 
C 331.636563 260.497544 330.587741 260.063107 329.494281 260.063107 
C 328.40082 260.063107 327.351998 260.497544 326.578805 261.270737 
C 325.805612 262.04393 325.371175 263.092752 325.371175 264.186213 
C 325.371175 265.279673 325.805612 266.328496 326.578805 267.101689 
C 327.351998 267.874882 328.40082 268.309318 329.494281 268.309318 
z
" clip-path="url(#peb9884d6f3)" style="fill: #d4761f; fill-opacity: 0.7; stroke: #ffffff; stroke-opacity: 0.7; stroke-width: 0.6"/>
   </g>
   <g id="matplotlib.axis_1">
    <g id="xtick_1">
     <g id="line2d_1">
      <defs>
       <path id="m03104f2355" d="M 0 0 
L 0 3.5 
" style="stroke: #000000; stroke-width: 0.8"/>
      </defs>
      <g>
       <use xlink:href="#m03104f2355" x="95.301596" y="318.818359" style="stroke: #000000; stroke-width: 0.8"/>
      </g>
     </g>
     <g id="text_1">
      <!-- 5 -->
      <g transform="translate(92.438471 332.656953) scale(0.09 -0.09)">
       <defs>
        <path id="DejaVuSans-35" d="M 691 4666 
L 3169 4666 
L 3169 4134 
L 1269 4134 
L 1269 2991 
Q 1406 3038 1543 3061 
Q 1681 3084 1819 3084 
Q 2600 3084 3056 2656 
Q 3513 2228 3513 1497 
Q 3513 744 3044 326 
Q 2575 -91 1722 -91 
Q 1428 -91 1123 -41 
Q 819 9 494 109 
L 494 744 
Q 775 591 1075 516 
Q 1375 441 1709 441 
Q 2250 441 2565 725 
Q 2881 1009 2881 1497 
Q 2881 1984 2565 2268 
Q 2250 2553 1709 2553 
Q 1456 2553 1204 2497 
Q 953 2441 691 2322 
L 691 4666 
z
" transform="scale(0.015625)"/>
       </defs>
       <use xlink:href="#DejaVuSans-35"/>
      </g>
     </g>
    </g>
    <g id="xtick_2">
     <g id="line2d_2">
      <g>
       <use xlink:href="#m03104f2355" x="170.075761" y="318.818359" style="stroke: #000000; stroke-width: 0.8"/>
      </g>
     </g>
     <g id="text_2">
      <!-- 10 -->
      <g transform="translate(164.349511 332.656953) scale(0.09 -0.09)">
       <defs>
        <path id="DejaVuSans-31" d="M 794 531 
L 1825 531 
L 1825 4091 
L 703 3866 
L 703 4441 
L 1819 4666 
L 2450 4666 
L 2450 531 
L 3481 531 
L 3481 0 
L 794 0 
L 794 531 
z
" transform="scale(0.015625)"/>
        <path id="DejaVuSans-30" d="M 2034 4250 
Q 1547 4250 1301 3770 
Q 1056 3291 1056 2328 
Q 1056 1369 1301 889 
Q 1547 409 2034 409 
Q 2525 409 2770 889 
Q 3016 1369 3016 2328 
Q 3016 3291 2770 3770 
Q 2525 4250 2034 4250 
z
M 2034 4750 
Q 2819 4750 3233 4129 
Q 3647 3509 3647 2328 
Q 3647 1150 3233 529 
Q 2819 -91 2034 -91 
Q 1250 -91 836 529 
Q 422 1150 422 2328 
Q 422 3509 836 4129 
Q 1250 4750 2034 4750 
z
" transform="scale(0.015625)"/>
       </defs>
       <use xlink:href="#DejaVuSans-31"/>
       <use xlink:href="#DejaVuSans-30" x="63.623047"/>
      </g>
     </g>
    </g>
    <g id="xtick_3">
     <g id="line2d_3">
      <g>
       <use xlink:href="#m03104f2355" x="244.849926" y="318.818359" style="stroke: #000000; stroke-width: 0.8"/>
      </g>
     </g>
     <g id="text_3">
      <!-- 15 -->
      <g transform="translate(239.123676 332.656953) scale(0.09 -0.09)">
       <use xlink:href="#DejaVuSans-31"/>
       <use xlink:href="#DejaVuSans-35" x="63.623047"/>
      </g>
     </g>
    </g>
    <g id="xtick_4">
     <g id="line2d_4">
      <g>
       <use xlink:href="#m03104f2355" x="319.624091" y="318.818359" style="stroke: #000000; stroke-width: 0.8"/>
      </g>
     </g>
     <g id="text_4">
      <!-- 20 -->
      <g transform="translate(313.897841 332.656953) scale(0.09 -0.09)">
       <defs>
        <path id="DejaVuSans-32" d="M 1228 531 
L 3431 531 
L 3431 0 
L 469 0 
L 469 531 
Q 828 903 1448 1529 
Q 2069 2156 2228 2338 
Q 2531 2678 2651 2914 
Q 2772 3150 2772 3378 
Q 2772 3750 2511 3984 
Q 2250 4219 1831 4219 
Q 1534 4219 1204 4116 
Q 875 4013 500 3803 
L 500 4441 
Q 881 4594 1212 4672 
Q 1544 4750 1819 4750 
Q 2544 4750 2975 4387 
Q 3406 4025 3406 3419 
Q 3406 3131 3298 2873 
Q 3191 2616 2906 2266 
Q 2828 2175 2409 1742 
Q 1991 1309 1228 531 
z
" transform="scale(0.015625)"/>
       </defs>
       <use xlink:href="#DejaVuSans-32"/>
       <use xlink:href="#DejaVuSans-30" x="63.623047"/>
      </g>
     </g>
    </g>
    <g id="xtick_5">
     <g id="line2d_5">
      <g>
       <use xlink:href="#m03104f2355" x="394.398256" y="318.818359" style="stroke: #000000; stroke-width: 0.8"/>
      </g>
     </g>
     <g id="text_5">
      <!-- 25 -->
      <g transform="translate(388.672006 332.656953) scale(0.09 -0.09)">
       <use xlink:href="#DejaVuSans-32"/>
       <use xlink:href="#DejaVuSans-35" x="63.623047"/>
      </g>
     </g>
    </g>
    <g id="xtick_6">
     <g id="line2d_6">
      <g>
       <use xlink:href="#m03104f2355" x="469.172421" y="318.818359" style="stroke: #000000; stroke-width: 0.8"/>
      </g>
     </g>
     <g id="text_6">
      <!-- 30 -->
      <g transform="translate(463.446171 332.656953) scale(0.09 -0.09)">
       <defs>
        <path id="DejaVuSans-33" d="M 2597 2516 
Q 3050 2419 3304 2112 
Q 3559 1806 3559 1356 
Q 3559 666 3084 287 
Q 2609 -91 1734 -91 
Q 1441 -91 1130 -33 
Q 819 25 488 141 
L 488 750 
Q 750 597 1062 519 
Q 1375 441 1716 441 
Q 2309 441 2620 675 
Q 2931 909 2931 1356 
Q 2931 1769 2642 2001 
Q 2353 2234 1838 2234 
L 1294 2234 
L 1294 2753 
L 1863 2753 
Q 2328 2753 2575 2939 
Q 2822 3125 2822 3475 
Q 2822 3834 2567 4026 
Q 2313 4219 1838 4219 
Q 1578 4219 1281 4162 
Q 984 4106 628 3988 
L 628 4550 
Q 988 4650 1302 4700 
Q 1616 4750 1894 4750 
Q 2613 4750 3031 4423 
Q 3450 4097 3450 3541 
Q 3450 3153 3228 2886 
Q 3006 2619 2597 2516 
z
" transform="scale(0.015625)"/>
       </defs>
       <use xlink:href="#DejaVuSans-33"/>
       <use xlink:href="#DejaVuSans-30" x="63.623047"/>
      </g>
     </g>
    </g>
    <g id="text_7">
     <!-- Years from approval to most recent new indication -->
     <g transform="translate(175.018898 345.367266) scale(0.09 -0.09)">
      <defs>
       <path id="DejaVuSans-59" d="M -13 4666 
L 666 4666 
L 1959 2747 
L 3244 4666 
L 3922 4666 
L 2272 2222 
L 2272 0 
L 1638 0 
L 1638 2222 
L -13 4666 
z
" transform="scale(0.015625)"/>
       <path id="DejaVuSans-65" d="M 3597 1894 
L 3597 1613 
L 953 1613 
Q 991 1019 1311 708 
Q 1631 397 2203 397 
Q 2534 397 2845 478 
Q 3156 559 3463 722 
L 3463 178 
Q 3153 47 2828 -22 
Q 2503 -91 2169 -91 
Q 1331 -91 842 396 
Q 353 884 353 1716 
Q 353 2575 817 3079 
Q 1281 3584 2069 3584 
Q 2775 3584 3186 3129 
Q 3597 2675 3597 1894 
z
M 3022 2063 
Q 3016 2534 2758 2815 
Q 2500 3097 2075 3097 
Q 1594 3097 1305 2825 
Q 1016 2553 972 2059 
L 3022 2063 
z
" transform="scale(0.015625)"/>
       <path id="DejaVuSans-61" d="M 2194 1759 
Q 1497 1759 1228 1600 
Q 959 1441 959 1056 
Q 959 750 1161 570 
Q 1363 391 1709 391 
Q 2188 391 2477 730 
Q 2766 1069 2766 1631 
L 2766 1759 
L 2194 1759 
z
M 3341 1997 
L 3341 0 
L 2766 0 
L 2766 531 
Q 2569 213 2275 61 
Q 1981 -91 1556 -91 
Q 1019 -91 701 211 
Q 384 513 384 1019 
Q 384 1609 779 1909 
Q 1175 2209 1959 2209 
L 2766 2209 
L 2766 2266 
Q 2766 2663 2505 2880 
Q 2244 3097 1772 3097 
Q 1472 3097 1187 3025 
Q 903 2953 641 2809 
L 641 3341 
Q 956 3463 1253 3523 
Q 1550 3584 1831 3584 
Q 2591 3584 2966 3190 
Q 3341 2797 3341 1997 
z
" transform="scale(0.015625)"/>
       <path id="DejaVuSans-72" d="M 2631 2963 
Q 2534 3019 2420 3045 
Q 2306 3072 2169 3072 
Q 1681 3072 1420 2755 
Q 1159 2438 1159 1844 
L 1159 0 
L 581 0 
L 581 3500 
L 1159 3500 
L 1159 2956 
Q 1341 3275 1631 3429 
Q 1922 3584 2338 3584 
Q 2397 3584 2469 3576 
Q 2541 3569 2628 3553 
L 2631 2963 
z
" transform="scale(0.015625)"/>
       <path id="DejaVuSans-73" d="M 2834 3397 
L 2834 2853 
Q 2591 2978 2328 3040 
Q 2066 3103 1784 3103 
Q 1356 3103 1142 2972 
Q 928 2841 928 2578 
Q 928 2378 1081 2264 
Q 1234 2150 1697 2047 
L 1894 2003 
Q 2506 1872 2764 1633 
Q 3022 1394 3022 966 
Q 3022 478 2636 193 
Q 2250 -91 1575 -91 
Q 1294 -91 989 -36 
Q 684 19 347 128 
L 347 722 
Q 666 556 975 473 
Q 1284 391 1588 391 
Q 1994 391 2212 530 
Q 2431 669 2431 922 
Q 2431 1156 2273 1281 
Q 2116 1406 1581 1522 
L 1381 1569 
Q 847 1681 609 1914 
Q 372 2147 372 2553 
Q 372 3047 722 3315 
Q 1072 3584 1716 3584 
Q 2034 3584 2315 3537 
Q 2597 3491 2834 3397 
z
" transform="scale(0.015625)"/>
       <path id="DejaVuSans-20" transform="scale(0.015625)"/>
       <path id="DejaVuSans-66" d="M 2375 4863 
L 2375 4384 
L 1825 4384 
Q 1516 4384 1395 4259 
Q 1275 4134 1275 3809 
L 1275 3500 
L 2222 3500 
L 2222 3053 
L 1275 3053 
L 1275 0 
L 697 0 
L 697 3053 
L 147 3053 
L 147 3500 
L 697 3500 
L 697 3744 
Q 697 4328 969 4595 
Q 1241 4863 1831 4863 
L 2375 4863 
z
" transform="scale(0.015625)"/>
       <path id="DejaVuSans-6f" d="M 1959 3097 
Q 1497 3097 1228 2736 
Q 959 2375 959 1747 
Q 959 1119 1226 758 
Q 1494 397 1959 397 
Q 2419 397 2687 759 
Q 2956 1122 2956 1747 
Q 2956 2369 2687 2733 
Q 2419 3097 1959 3097 
z
M 1959 3584 
Q 2709 3584 3137 3096 
Q 3566 2609 3566 1747 
Q 3566 888 3137 398 
Q 2709 -91 1959 -91 
Q 1206 -91 779 398 
Q 353 888 353 1747 
Q 353 2609 779 3096 
Q 1206 3584 1959 3584 
z
" transform="scale(0.015625)"/>
       <path id="DejaVuSans-6d" d="M 3328 2828 
Q 3544 3216 3844 3400 
Q 4144 3584 4550 3584 
Q 5097 3584 5394 3201 
Q 5691 2819 5691 2113 
L 5691 0 
L 5113 0 
L 5113 2094 
Q 5113 2597 4934 2840 
Q 4756 3084 4391 3084 
Q 3944 3084 3684 2787 
Q 3425 2491 3425 1978 
L 3425 0 
L 2847 0 
L 2847 2094 
Q 2847 2600 2669 2842 
Q 2491 3084 2119 3084 
Q 1678 3084 1418 2786 
Q 1159 2488 1159 1978 
L 1159 0 
L 581 0 
L 581 3500 
L 1159 3500 
L 1159 2956 
Q 1356 3278 1631 3431 
Q 1906 3584 2284 3584 
Q 2666 3584 2933 3390 
Q 3200 3197 3328 2828 
z
" transform="scale(0.015625)"/>
       <path id="DejaVuSans-70" d="M 1159 525 
L 1159 -1331 
L 581 -1331 
L 581 3500 
L 1159 3500 
L 1159 2969 
Q 1341 3281 1617 3432 
Q 1894 3584 2278 3584 
Q 2916 3584 3314 3078 
Q 3713 2572 3713 1747 
Q 3713 922 3314 415 
Q 2916 -91 2278 -91 
Q 1894 -91 1617 61 
Q 1341 213 1159 525 
z
M 3116 1747 
Q 3116 2381 2855 2742 
Q 2594 3103 2138 3103 
Q 1681 3103 1420 2742 
Q 1159 2381 1159 1747 
Q 1159 1113 1420 752 
Q 1681 391 2138 391 
Q 2594 391 2855 752 
Q 3116 1113 3116 1747 
z
" transform="scale(0.015625)"/>
       <path id="DejaVuSans-76" d="M 191 3500 
L 800 3500 
L 1894 563 
L 2988 3500 
L 3597 3500 
L 2284 0 
L 1503 0 
L 191 3500 
z
" transform="scale(0.015625)"/>
       <path id="DejaVuSans-6c" d="M 603 4863 
L 1178 4863 
L 1178 0 
L 603 0 
L 603 4863 
z
" transform="scale(0.015625)"/>
       <path id="DejaVuSans-74" d="M 1172 4494 
L 1172 3500 
L 2356 3500 
L 2356 3053 
L 1172 3053 
L 1172 1153 
Q 1172 725 1289 603 
Q 1406 481 1766 481 
L 2356 481 
L 2356 0 
L 1766 0 
Q 1100 0 847 248 
Q 594 497 594 1153 
L 594 3053 
L 172 3053 
L 172 3500 
L 594 3500 
L 594 4494 
L 1172 4494 
z
" transform="scale(0.015625)"/>
       <path id="DejaVuSans-63" d="M 3122 3366 
L 3122 2828 
Q 2878 2963 2633 3030 
Q 2388 3097 2138 3097 
Q 1578 3097 1268 2742 
Q 959 2388 959 1747 
Q 959 1106 1268 751 
Q 1578 397 2138 397 
Q 2388 397 2633 464 
Q 2878 531 3122 666 
L 3122 134 
Q 2881 22 2623 -34 
Q 2366 -91 2075 -91 
Q 1284 -91 818 406 
Q 353 903 353 1747 
Q 353 2603 823 3093 
Q 1294 3584 2113 3584 
Q 2378 3584 2631 3529 
Q 2884 3475 3122 3366 
z
" transform="scale(0.015625)"/>
       <path id="DejaVuSans-6e" d="M 3513 2113 
L 3513 0 
L 2938 0 
L 2938 2094 
Q 2938 2591 2744 2837 
Q 2550 3084 2163 3084 
Q 1697 3084 1428 2787 
Q 1159 2491 1159 1978 
L 1159 0 
L 581 0 
L 581 3500 
L 1159 3500 
L 1159 2956 
Q 1366 3272 1645 3428 
Q 1925 3584 2291 3584 
Q 2894 3584 3203 3211 
Q 3513 2838 3513 2113 
z
" transform="scale(0.015625)"/>
       <path id="DejaVuSans-77" d="M 269 3500 
L 844 3500 
L 1563 769 
L 2278 3500 
L 2956 3500 
L 3675 769 
L 4391 3500 
L 4966 3500 
L 4050 0 
L 3372 0 
L 2619 2869 
L 1863 0 
L 1184 0 
L 269 3500 
z
" transform="scale(0.015625)"/>
       <path id="DejaVuSans-69" d="M 603 3500 
L 1178 3500 
L 1178 0 
L 603 0 
L 603 3500 
z
M 603 4863 
L 1178 4863 
L 1178 4134 
L 603 4134 
L 603 4863 
z
" transform="scale(0.015625)"/>
       <path id="DejaVuSans-64" d="M 2906 2969 
L 2906 4863 
L 3481 4863 
L 3481 0 
L 2906 0 
L 2906 525 
Q 2725 213 2448 61 
Q 2172 -91 1784 -91 
Q 1150 -91 751 415 
Q 353 922 353 1747 
Q 353 2572 751 3078 
Q 1150 3584 1784 3584 
Q 2172 3584 2448 3432 
Q 2725 3281 2906 2969 
z
M 947 1747 
Q 947 1113 1208 752 
Q 1469 391 1925 391 
Q 2381 391 2643 752 
Q 2906 1113 2906 1747 
Q 2906 2381 2643 2742 
Q 2381 3103 1925 3103 
Q 1469 3103 1208 2742 
Q 947 2381 947 1747 
z
" transform="scale(0.015625)"/>
      </defs>
      <use xlink:href="#DejaVuSans-59"/>
      <use xlink:href="#DejaVuSans-65" x="47.833984"/>
      <use xlink:href="#DejaVuSans-61" x="109.357422"/>
      <use xlink:href="#DejaVuSans-72" x="170.636719"/>
      <use xlink:href="#DejaVuSans-73" x="211.75"/>
      <use xlink:href="#DejaVuSans-20" x="263.849609"/>
      <use xlink:href="#DejaVuSans-66" x="295.636719"/>
      <use xlink:href="#DejaVuSans-72" x="330.841797"/>
      <use xlink:href="#DejaVuSans-6f" x="369.705078"/>
      <use xlink:href="#DejaVuSans-6d" x="430.886719"/>
      <use xlink:href="#DejaVuSans-20" x="528.298828"/>
      <use xlink:href="#DejaVuSans-61" x="560.085938"/>
      <use xlink:href="#DejaVuSans-70" x="621.365234"/>
      <use xlink:href="#DejaVuSans-70" x="684.841797"/>
      <use xlink:href="#DejaVuSans-72" x="748.318359"/>
      <use xlink:href="#DejaVuSans-6f" x="787.181641"/>
      <use xlink:href="#DejaVuSans-76" x="848.363281"/>
      <use xlink:href="#DejaVuSans-61" x="907.542969"/>
      <use xlink:href="#DejaVuSans-6c" x="968.822266"/>
      <use xlink:href="#DejaVuSans-20" x="996.605469"/>
      <use xlink:href="#DejaVuSans-74" x="1028.392578"/>
      <use xlink:href="#DejaVuSans-6f" x="1067.601562"/>
      <use xlink:href="#DejaVuSans-20" x="1128.783203"/>
      <use xlink:href="#DejaVuSans-6d" x="1160.570312"/>
      <use xlink:href="#DejaVuSans-6f" x="1257.982422"/>
      <use xlink:href="#DejaVuSans-73" x="1319.164062"/>
      <use xlink:href="#DejaVuSans-74" x="1371.263672"/>
      <use xlink:href="#DejaVuSans-20" x="1410.472656"/>
      <use xlink:href="#DejaVuSans-72" x="1442.259766"/>
      <use xlink:href="#DejaVuSans-65" x="1481.123047"/>
      <use xlink:href="#DejaVuSans-63" x="1542.646484"/>
      <use xlink:href="#DejaVuSans-65" x="1597.626953"/>
      <use xlink:href="#DejaVuSans-6e" x="1659.150391"/>
      <use xlink:href="#DejaVuSans-74" x="1722.529297"/>
      <use xlink:href="#DejaVuSans-20" x="1761.738281"/>
      <use xlink:href="#DejaVuSans-6e" x="1793.525391"/>
      <use xlink:href="#DejaVuSans-65" x="1856.904297"/>
      <use xlink:href="#DejaVuSans-77" x="1918.427734"/>
      <use xlink:href="#DejaVuSans-20" x="2000.214844"/>
      <use xlink:href="#DejaVuSans-69" x="2032.001953"/>
      <use xlink:href="#DejaVuSans-6e" x="2059.785156"/>
      <use xlink:href="#DejaVuSans-64" x="2123.164062"/>
      <use xlink:href="#DejaVuSans-69" x="2186.640625"/>
      <use xlink:href="#DejaVuSans-63" x="2214.423828"/>
      <use xlink:href="#DejaVuSans-61" x="2269.404297"/>
      <use xlink:href="#DejaVuSans-74" x="2330.683594"/>
      <use xlink:href="#DejaVuSans-69" x="2369.892578"/>
      <use xlink:href="#DejaVuSans-6f" x="2397.675781"/>
      <use xlink:href="#DejaVuSans-6e" x="2458.857422"/>
     </g>
    </g>
   </g>
   <g id="matplotlib.axis_2">
    <g id="ytick_1">
     <g id="line2d_7">
      <path d="M 42.750313 236.964316 
L 534.285764 236.964316 
" clip-path="url(#peb9884d6f3)" style="fill: none; stroke: #eeeeee; stroke-width: 0.7; stroke-linecap: square"/>
     </g>
     <g id="line2d_8">
      <defs>
       <path id="m99ab736543" d="M 0 0 
L -3.5 0 
" style="stroke: #000000; stroke-width: 0.8"/>
      </defs>
      <g>
       <use xlink:href="#m99ab736543" x="42.750313" y="236.964316" style="stroke: #000000; stroke-width: 0.8"/>
      </g>
     </g>
     <g id="text_8">
      <!-- $\mathdefault{10^{0}}$ -->
      <g transform="translate(19.910313 240.383613) scale(0.09 -0.09)">
       <use xlink:href="#DejaVuSans-31" transform="translate(0 0.765625)"/>
       <use xlink:href="#DejaVuSans-30" transform="translate(63.623047 0.765625)"/>
       <use xlink:href="#DejaVuSans-30" transform="translate(128.203125 39.046875) scale(0.7)"/>
      </g>
     </g>
    </g>
    <g id="ytick_2">
     <g id="line2d_9">
      <path d="M 42.750313 78.187565 
L 534.285764 78.187565 
" clip-path="url(#peb9884d6f3)" style="fill: none; stroke: #eeeeee; stroke-width: 0.7; stroke-linecap: square"/>
     </g>
     <g id="line2d_10">
      <g>
       <use xlink:href="#m99ab736543" x="42.750313" y="78.187565" style="stroke: #000000; stroke-width: 0.8"/>
      </g>
     </g>
     <g id="text_9">
      <!-- $\mathdefault{10^{1}}$ -->
      <g transform="translate(19.910313 81.606862) scale(0.09 -0.09)">
       <use xlink:href="#DejaVuSans-31" transform="translate(0 0.684375)"/>
       <use xlink:href="#DejaVuSans-30" transform="translate(63.623047 0.684375)"/>
       <use xlink:href="#DejaVuSans-31" transform="translate(128.203125 38.965625) scale(0.7)"/>
      </g>
     </g>
    </g>
    <g id="ytick_3">
     <g id="line2d_11">
      <defs>
       <path id="m9aed877f2e" d="M 0 0 
L -2 0 
" style="stroke: #000000; stroke-width: 0.6"/>
      </defs>
      <g>
       <use xlink:href="#m9aed877f2e" x="42.750313" y="300.147938" style="stroke: #000000; stroke-width: 0.6"/>
      </g>
     </g>
    </g>
    <g id="ytick_4">
     <g id="line2d_12">
      <g>
       <use xlink:href="#m9aed877f2e" x="42.750313" y="284.760881" style="stroke: #000000; stroke-width: 0.6"/>
      </g>
     </g>
    </g>
    <g id="ytick_5">
     <g id="line2d_13">
      <g>
       <use xlink:href="#m9aed877f2e" x="42.750313" y="272.18874" style="stroke: #000000; stroke-width: 0.6"/>
      </g>
     </g>
    </g>
    <g id="ytick_6">
     <g id="line2d_14">
      <g>
       <use xlink:href="#m9aed877f2e" x="42.750313" y="261.559146" style="stroke: #000000; stroke-width: 0.6"/>
      </g>
     </g>
    </g>
    <g id="ytick_7">
     <g id="line2d_15">
      <g>
       <use xlink:href="#m9aed877f2e" x="42.750313" y="252.351373" style="stroke: #000000; stroke-width: 0.6"/>
      </g>
     </g>
    </g>
    <g id="ytick_8">
     <g id="line2d_16">
      <g>
       <use xlink:href="#m9aed877f2e" x="42.750313" y="244.229542" style="stroke: #000000; stroke-width: 0.6"/>
      </g>
     </g>
    </g>
    <g id="ytick_9">
     <g id="line2d_17">
      <g>
       <use xlink:href="#m9aed877f2e" x="42.750313" y="189.167751" style="stroke: #000000; stroke-width: 0.6"/>
      </g>
     </g>
    </g>
    <g id="ytick_10">
     <g id="line2d_18">
      <g>
       <use xlink:href="#m9aed877f2e" x="42.750313" y="161.208553" style="stroke: #000000; stroke-width: 0.6"/>
      </g>
     </g>
    </g>
    <g id="ytick_11">
     <g id="line2d_19">
      <g>
       <use xlink:href="#m9aed877f2e" x="42.750313" y="141.371187" style="stroke: #000000; stroke-width: 0.6"/>
      </g>
     </g>
    </g>
    <g id="ytick_12">
     <g id="line2d_20">
      <g>
       <use xlink:href="#m9aed877f2e" x="42.750313" y="125.98413" style="stroke: #000000; stroke-width: 0.6"/>
      </g>
     </g>
    </g>
    <g id="ytick_13">
     <g id="line2d_21">
      <g>
       <use xlink:href="#m9aed877f2e" x="42.750313" y="113.411989" style="stroke: #000000; stroke-width: 0.6"/>
      </g>
     </g>
    </g>
    <g id="ytick_14">
     <g id="line2d_22">
      <g>
       <use xlink:href="#m9aed877f2e" x="42.750313" y="102.782395" style="stroke: #000000; stroke-width: 0.6"/>
      </g>
     </g>
    </g>
    <g id="ytick_15">
     <g id="line2d_23">
      <g>
       <use xlink:href="#m9aed877f2e" x="42.750313" y="93.574622" style="stroke: #000000; stroke-width: 0.6"/>
      </g>
     </g>
    </g>
    <g id="ytick_16">
     <g id="line2d_24">
      <g>
       <use xlink:href="#m9aed877f2e" x="42.750313" y="85.452791" style="stroke: #000000; stroke-width: 0.6"/>
      </g>
     </g>
    </g>
    <g id="ytick_17">
     <g id="line2d_25">
      <g>
       <use xlink:href="#m9aed877f2e" x="42.750313" y="30.391" style="stroke: #000000; stroke-width: 0.6"/>
      </g>
     </g>
    </g>
    <g id="text_10">
     <!-- Latest-year Medicare spend ($B, log scale) -->
     <g transform="translate(14.038594 267.174609) rotate(-90) scale(0.09 -0.09)">
      <defs>
       <path id="DejaVuSans-4c" d="M 628 4666 
L 1259 4666 
L 1259 531 
L 3531 531 
L 3531 0 
L 628 0 
L 628 4666 
z
" transform="scale(0.015625)"/>
       <path id="DejaVuSans-2d" d="M 313 2009 
L 1997 2009 
L 1997 1497 
L 313 1497 
L 313 2009 
z
" transform="scale(0.015625)"/>
       <path id="DejaVuSans-79" d="M 2059 -325 
Q 1816 -950 1584 -1140 
Q 1353 -1331 966 -1331 
L 506 -1331 
L 506 -850 
L 844 -850 
Q 1081 -850 1212 -737 
Q 1344 -625 1503 -206 
L 1606 56 
L 191 3500 
L 800 3500 
L 1894 763 
L 2988 3500 
L 3597 3500 
L 2059 -325 
z
" transform="scale(0.015625)"/>
       <path id="DejaVuSans-4d" d="M 628 4666 
L 1569 4666 
L 2759 1491 
L 3956 4666 
L 4897 4666 
L 4897 0 
L 4281 0 
L 4281 4097 
L 3078 897 
L 2444 897 
L 1241 4097 
L 1241 0 
L 628 0 
L 628 4666 
z
" transform="scale(0.015625)"/>
       <path id="DejaVuSans-28" d="M 1984 4856 
Q 1566 4138 1362 3434 
Q 1159 2731 1159 2009 
Q 1159 1288 1364 580 
Q 1569 -128 1984 -844 
L 1484 -844 
Q 1016 -109 783 600 
Q 550 1309 550 2009 
Q 550 2706 781 3412 
Q 1013 4119 1484 4856 
L 1984 4856 
z
" transform="scale(0.015625)"/>
       <path id="DejaVuSans-24" d="M 2163 -941 
L 1850 -941 
L 1847 0 
Q 1519 6 1191 76 
Q 863 147 531 288 
L 531 850 
Q 850 650 1176 548 
Q 1503 447 1850 444 
L 1850 1869 
Q 1159 1981 845 2250 
Q 531 2519 531 2988 
Q 531 3497 872 3790 
Q 1213 4084 1850 4128 
L 1850 4863 
L 2163 4863 
L 2163 4138 
Q 2453 4125 2725 4076 
Q 2997 4028 3256 3944 
L 3256 3397 
Q 2997 3528 2723 3600 
Q 2450 3672 2163 3684 
L 2163 2350 
Q 2872 2241 3206 1959 
Q 3541 1678 3541 1191 
Q 3541 663 3186 358 
Q 2831 53 2163 6 
L 2163 -941 
z
M 1850 2406 
L 1850 3688 
Q 1488 3647 1297 3481 
Q 1106 3316 1106 3041 
Q 1106 2772 1282 2622 
Q 1459 2472 1850 2406 
z
M 2163 1806 
L 2163 453 
Q 2559 506 2761 678 
Q 2963 850 2963 1131 
Q 2963 1406 2770 1568 
Q 2578 1731 2163 1806 
z
" transform="scale(0.015625)"/>
       <path id="DejaVuSans-42" d="M 1259 2228 
L 1259 519 
L 2272 519 
Q 2781 519 3026 730 
Q 3272 941 3272 1375 
Q 3272 1813 3026 2020 
Q 2781 2228 2272 2228 
L 1259 2228 
z
M 1259 4147 
L 1259 2741 
L 2194 2741 
Q 2656 2741 2882 2914 
Q 3109 3088 3109 3444 
Q 3109 3797 2882 3972 
Q 2656 4147 2194 4147 
L 1259 4147 
z
M 628 4666 
L 2241 4666 
Q 2963 4666 3353 4366 
Q 3744 4066 3744 3513 
Q 3744 3084 3544 2831 
Q 3344 2578 2956 2516 
Q 3422 2416 3680 2098 
Q 3938 1781 3938 1306 
Q 3938 681 3513 340 
Q 3088 0 2303 0 
L 628 0 
L 628 4666 
z
" transform="scale(0.015625)"/>
       <path id="DejaVuSans-2c" d="M 750 794 
L 1409 794 
L 1409 256 
L 897 -744 
L 494 -744 
L 750 256 
L 750 794 
z
" transform="scale(0.015625)"/>
       <path id="DejaVuSans-67" d="M 2906 1791 
Q 2906 2416 2648 2759 
Q 2391 3103 1925 3103 
Q 1463 3103 1205 2759 
Q 947 2416 947 1791 
Q 947 1169 1205 825 
Q 1463 481 1925 481 
Q 2391 481 2648 825 
Q 2906 1169 2906 1791 
z
M 3481 434 
Q 3481 -459 3084 -895 
Q 2688 -1331 1869 -1331 
Q 1566 -1331 1297 -1286 
Q 1028 -1241 775 -1147 
L 775 -588 
Q 1028 -725 1275 -790 
Q 1522 -856 1778 -856 
Q 2344 -856 2625 -561 
Q 2906 -266 2906 331 
L 2906 616 
Q 2728 306 2450 153 
Q 2172 0 1784 0 
Q 1141 0 747 490 
Q 353 981 353 1791 
Q 353 2603 747 3093 
Q 1141 3584 1784 3584 
Q 2172 3584 2450 3431 
Q 2728 3278 2906 2969 
L 2906 3500 
L 3481 3500 
L 3481 434 
z
" transform="scale(0.015625)"/>
       <path id="DejaVuSans-29" d="M 513 4856 
L 1013 4856 
Q 1481 4119 1714 3412 
Q 1947 2706 1947 2009 
Q 1947 1309 1714 600 
Q 1481 -109 1013 -844 
L 513 -844 
Q 928 -128 1133 580 
Q 1338 1288 1338 2009 
Q 1338 2731 1133 3434 
Q 928 4138 513 4856 
z
" transform="scale(0.015625)"/>
      </defs>
      <use xlink:href="#DejaVuSans-4c"/>
      <use xlink:href="#DejaVuSans-61" x="55.712891"/>
      <use xlink:href="#DejaVuSans-74" x="116.992188"/>
      <use xlink:href="#DejaVuSans-65" x="156.201172"/>
      <use xlink:href="#DejaVuSans-73" x="217.724609"/>
      <use xlink:href="#DejaVuSans-74" x="269.824219"/>
      <use xlink:href="#DejaVuSans-2d" x="309.033203"/>
      <use xlink:href="#DejaVuSans-79" x="343.367188"/>
      <use xlink:href="#DejaVuSans-65" x="402.546875"/>
      <use xlink:href="#DejaVuSans-61" x="464.070312"/>
      <use xlink:href="#DejaVuSans-72" x="525.349609"/>
      <use xlink:href="#DejaVuSans-20" x="566.462891"/>
      <use xlink:href="#DejaVuSans-4d" x="598.25"/>
      <use xlink:href="#DejaVuSans-65" x="684.529297"/>
      <use xlink:href="#DejaVuSans-64" x="746.052734"/>
      <use xlink:href="#DejaVuSans-69" x="809.529297"/>
      <use xlink:href="#DejaVuSans-63" x="837.3125"/>
      <use xlink:href="#DejaVuSans-61" x="892.292969"/>
      <use xlink:href="#DejaVuSans-72" x="953.572266"/>
      <use xlink:href="#DejaVuSans-65" x="992.435547"/>
      <use xlink:href="#DejaVuSans-20" x="1053.958984"/>
      <use xlink:href="#DejaVuSans-73" x="1085.746094"/>
      <use xlink:href="#DejaVuSans-70" x="1137.845703"/>
      <use xlink:href="#DejaVuSans-65" x="1201.322266"/>
      <use xlink:href="#DejaVuSans-6e" x="1262.845703"/>
      <use xlink:href="#DejaVuSans-64" x="1326.224609"/>
      <use xlink:href="#DejaVuSans-20" x="1389.701172"/>
      <use xlink:href="#DejaVuSans-28" x="1421.488281"/>
      <use xlink:href="#DejaVuSans-24" x="1460.501953"/>
      <use xlink:href="#DejaVuSans-42" x="1524.125"/>
      <use xlink:href="#DejaVuSans-2c" x="1592.728516"/>
      <use xlink:href="#DejaVuSans-20" x="1624.515625"/>
      <use xlink:href="#DejaVuSans-6c" x="1656.302734"/>
      <use xlink:href="#DejaVuSans-6f" x="1684.085938"/>
      <use xlink:href="#DejaVuSans-67" x="1745.267578"/>
      <use xlink:href="#DejaVuSans-20" x="1808.744141"/>
      <use xlink:href="#DejaVuSans-73" x="1840.53125"/>
      <use xlink:href="#DejaVuSans-63" x="1892.630859"/>
      <use xlink:href="#DejaVuSans-61" x="1947.611328"/>
      <use xlink:href="#DejaVuSans-6c" x="2008.890625"/>
      <use xlink:href="#DejaVuSans-65" x="2036.673828"/>
      <use xlink:href="#DejaVuSans-29" x="2098.197266"/>
     </g>
    </g>
   </g>
   <g id="line2d_26">
    <path d="M 155.120928 318.818359 
L 155.120928 23.178359 
" clip-path="url(#peb9884d6f3)" style="fill: none; stroke-dasharray: 1,1.65; stroke-dashoffset: 0; stroke: #1b6ca8; stroke-opacity: 0.6"/>
   </g>
   <g id="line2d_27">
    <path d="M 214.94026 318.818359 
L 214.94026 23.178359 
" clip-path="url(#peb9884d6f3)" style="fill: none; stroke-dasharray: 1,1.65; stroke-dashoffset: 0; stroke: #d4761f; stroke-opacity: 0.6"/>
   </g>
   <g id="patch_3">
    <path d="M 42.750313 318.818359 
L 42.750313 23.178359 
" style="fill: none; stroke: #888888; stroke-width: 0.8; stroke-linejoin: miter; stroke-linecap: square"/>
   </g>
   <g id="patch_4">
    <path d="M 42.750313 318.818359 
L 534.285764 318.818359 
" style="fill: none; stroke: #888888; stroke-width: 0.8; stroke-linejoin: miter; stroke-linecap: square"/>
   </g>
   <g id="text_11">
    <!-- Eliquis -->
    <g style="fill: #222222" transform="translate(207.471877 33.616541) scale(0.062 -0.062)">
     <defs>
      <path id="DejaVuSans-45" d="M 628 4666 
L 3578 4666 
L 3578 4134 
L 1259 4134 
L 1259 2753 
L 3481 2753 
L 3481 2222 
L 1259 2222 
L 1259 531 
L 3634 531 
L 3634 0 
L 628 0 
L 628 4666 
z
" transform="scale(0.015625)"/>
      <path id="DejaVuSans-71" d="M 947 1747 
Q 947 1113 1208 752 
Q 1469 391 1925 391 
Q 2381 391 2643 752 
Q 2906 1113 2906 1747 
Q 2906 2381 2643 2742 
Q 2381 3103 1925 3103 
Q 1469 3103 1208 2742 
Q 947 2381 947 1747 
z
M 2906 525 
Q 2725 213 2448 61 
Q 2172 -91 1784 -91 
Q 1150 -91 751 415 
Q 353 922 353 1747 
Q 353 2572 751 3078 
Q 1150 3584 1784 3584 
Q 2172 3584 2448 3432 
Q 2725 3281 2906 2969 
L 2906 3500 
L 3481 3500 
L 3481 -1331 
L 2906 -1331 
L 2906 525 
z
" transform="scale(0.015625)"/>
      <path id="DejaVuSans-75" d="M 544 1381 
L 544 3500 
L 1119 3500 
L 1119 1403 
Q 1119 906 1312 657 
Q 1506 409 1894 409 
Q 2359 409 2629 706 
Q 2900 1003 2900 1516 
L 2900 3500 
L 3475 3500 
L 3475 0 
L 2900 0 
L 2900 538 
Q 2691 219 2414 64 
Q 2138 -91 1772 -91 
Q 1169 -91 856 284 
Q 544 659 544 1381 
z
M 1991 3584 
L 1991 3584 
z
" transform="scale(0.015625)"/>
     </defs>
     <use xlink:href="#DejaVuSans-45"/>
     <use xlink:href="#DejaVuSans-6c" x="63.183594"/>
     <use xlink:href="#DejaVuSans-69" x="90.966797"/>
     <use xlink:href="#DejaVuSans-71" x="118.75"/>
     <use xlink:href="#DejaVuSans-75" x="182.226562"/>
     <use xlink:href="#DejaVuSans-69" x="245.605469"/>
     <use xlink:href="#DejaVuSans-73" x="273.388672"/>
    </g>
   </g>
   <g id="text_12">
    <!-- Ozempic -->
    <g style="fill: #222222" transform="translate(147.353448 80.981839) scale(0.062 -0.062)">
     <defs>
      <path id="DejaVuSans-4f" d="M 2522 4238 
Q 1834 4238 1429 3725 
Q 1025 3213 1025 2328 
Q 1025 1447 1429 934 
Q 1834 422 2522 422 
Q 3209 422 3611 934 
Q 4013 1447 4013 2328 
Q 4013 3213 3611 3725 
Q 3209 4238 2522 4238 
z
M 2522 4750 
Q 3503 4750 4090 4092 
Q 4678 3434 4678 2328 
Q 4678 1225 4090 567 
Q 3503 -91 2522 -91 
Q 1538 -91 948 565 
Q 359 1222 359 2328 
Q 359 3434 948 4092 
Q 1538 4750 2522 4750 
z
" transform="scale(0.015625)"/>
      <path id="DejaVuSans-7a" d="M 353 3500 
L 3084 3500 
L 3084 2975 
L 922 459 
L 3084 459 
L 3084 0 
L 275 0 
L 275 525 
L 2438 3041 
L 353 3041 
L 353 3500 
z
" transform="scale(0.015625)"/>
     </defs>
     <use xlink:href="#DejaVuSans-4f"/>
     <use xlink:href="#DejaVuSans-7a" x="78.710938"/>
     <use xlink:href="#DejaVuSans-65" x="131.201172"/>
     <use xlink:href="#DejaVuSans-6d" x="192.724609"/>
     <use xlink:href="#DejaVuSans-70" x="290.136719"/>
     <use xlink:href="#DejaVuSans-69" x="353.613281"/>
     <use xlink:href="#DejaVuSans-63" x="381.396484"/>
    </g>
   </g>
   <g id="text_13">
    <!-- Jardiance -->
    <g style="fill: #222222" transform="translate(182.048661 83.690207) scale(0.062 -0.062)">
     <defs>
      <path id="DejaVuSans-4a" d="M 628 4666 
L 1259 4666 
L 1259 325 
Q 1259 -519 939 -900 
Q 619 -1281 -91 -1281 
L -331 -1281 
L -331 -750 
L -134 -750 
Q 284 -750 456 -515 
Q 628 -281 628 325 
L 628 4666 
z
" transform="scale(0.015625)"/>
     </defs>
     <use xlink:href="#DejaVuSans-4a"/>
     <use xlink:href="#DejaVuSans-61" x="29.492188"/>
     <use xlink:href="#DejaVuSans-72" x="90.771484"/>
     <use xlink:href="#DejaVuSans-64" x="130.134766"/>
     <use xlink:href="#DejaVuSans-69" x="193.611328"/>
     <use xlink:href="#DejaVuSans-61" x="221.394531"/>
     <use xlink:href="#DejaVuSans-6e" x="282.673828"/>
     <use xlink:href="#DejaVuSans-63" x="346.052734"/>
     <use xlink:href="#DejaVuSans-65" x="401.033203"/>
    </g>
   </g>
   <g id="text_14">
    <!-- Xarelto -->
    <g style="fill: #222222" transform="translate(175.318986 106.946485) scale(0.062 -0.062)">
     <defs>
      <path id="DejaVuSans-58" d="M 403 4666 
L 1081 4666 
L 2241 2931 
L 3406 4666 
L 4084 4666 
L 2584 2425 
L 4184 0 
L 3506 0 
L 2194 1984 
L 872 0 
L 191 0 
L 1856 2491 
L 403 4666 
z
" transform="scale(0.015625)"/>
     </defs>
     <use xlink:href="#DejaVuSans-58"/>
     <use xlink:href="#DejaVuSans-61" x="68.505859"/>
     <use xlink:href="#DejaVuSans-72" x="129.785156"/>
     <use xlink:href="#DejaVuSans-65" x="168.648438"/>
     <use xlink:href="#DejaVuSans-6c" x="230.171875"/>
     <use xlink:href="#DejaVuSans-74" x="257.955078"/>
     <use xlink:href="#DejaVuSans-6f" x="297.164062"/>
    </g>
   </g>
   <g id="text_15">
    <!-- Trelegy Ellipta -->
    <g style="fill: #222222" transform="translate(68.092833 130.928703) scale(0.062 -0.062)">
     <defs>
      <path id="DejaVuSans-54" d="M -19 4666 
L 3928 4666 
L 3928 4134 
L 2272 4134 
L 2272 0 
L 1638 0 
L 1638 4134 
L -19 4134 
L -19 4666 
z
" transform="scale(0.015625)"/>
     </defs>
     <use xlink:href="#DejaVuSans-54"/>
     <use xlink:href="#DejaVuSans-72" x="46.333984"/>
     <use xlink:href="#DejaVuSans-65" x="85.197266"/>
     <use xlink:href="#DejaVuSans-6c" x="146.720703"/>
     <use xlink:href="#DejaVuSans-65" x="174.503906"/>
     <use xlink:href="#DejaVuSans-67" x="236.027344"/>
     <use xlink:href="#DejaVuSans-79" x="299.503906"/>
     <use xlink:href="#DejaVuSans-20" x="358.683594"/>
     <use xlink:href="#DejaVuSans-45" x="390.470703"/>
     <use xlink:href="#DejaVuSans-6c" x="453.654297"/>
     <use xlink:href="#DejaVuSans-6c" x="481.4375"/>
     <use xlink:href="#DejaVuSans-69" x="509.220703"/>
     <use xlink:href="#DejaVuSans-70" x="537.003906"/>
     <use xlink:href="#DejaVuSans-74" x="600.480469"/>
     <use xlink:href="#DejaVuSans-61" x="639.689453"/>
    </g>
   </g>
   <g id="text_16">
    <!-- Farxiga -->
    <g style="fill: #222222" transform="translate(187.282852 132.711103) scale(0.062 -0.062)">
     <defs>
      <path id="DejaVuSans-46" d="M 628 4666 
L 3309 4666 
L 3309 4134 
L 1259 4134 
L 1259 2759 
L 3109 2759 
L 3109 2228 
L 1259 2228 
L 1259 0 
L 628 0 
L 628 4666 
z
" transform="scale(0.015625)"/>
      <path id="DejaVuSans-78" d="M 3513 3500 
L 2247 1797 
L 3578 0 
L 2900 0 
L 1881 1375 
L 863 0 
L 184 0 
L 1544 1831 
L 300 3500 
L 978 3500 
L 1906 2253 
L 2834 3500 
L 3513 3500 
z
" transform="scale(0.015625)"/>
     </defs>
     <use xlink:href="#DejaVuSans-46"/>
     <use xlink:href="#DejaVuSans-61" x="48.394531"/>
     <use xlink:href="#DejaVuSans-72" x="109.673828"/>
     <use xlink:href="#DejaVuSans-78" x="148.162109"/>
     <use xlink:href="#DejaVuSans-69" x="207.341797"/>
     <use xlink:href="#DejaVuSans-67" x="235.125"/>
     <use xlink:href="#DejaVuSans-61" x="298.601562"/>
    </g>
   </g>
   <g id="text_17">
    <!-- Trulicity -->
    <g style="fill: #222222" transform="translate(145.558868 96.288153) scale(0.062 -0.062)">
     <use xlink:href="#DejaVuSans-54"/>
     <use xlink:href="#DejaVuSans-72" x="46.333984"/>
     <use xlink:href="#DejaVuSans-75" x="87.447266"/>
     <use xlink:href="#DejaVuSans-6c" x="150.826172"/>
     <use xlink:href="#DejaVuSans-69" x="178.609375"/>
     <use xlink:href="#DejaVuSans-63" x="206.392578"/>
     <use xlink:href="#DejaVuSans-69" x="261.373047"/>
     <use xlink:href="#DejaVuSans-74" x="289.15625"/>
     <use xlink:href="#DejaVuSans-79" x="328.365234"/>
    </g>
   </g>
   <g id="text_18">
    <!-- Stelara -->
    <g style="fill: #222222" transform="translate(271.029917 157.855641) scale(0.062 -0.062)">
     <defs>
      <path id="DejaVuSans-53" d="M 3425 4513 
L 3425 3897 
Q 3066 4069 2747 4153 
Q 2428 4238 2131 4238 
Q 1616 4238 1336 4038 
Q 1056 3838 1056 3469 
Q 1056 3159 1242 3001 
Q 1428 2844 1947 2747 
L 2328 2669 
Q 3034 2534 3370 2195 
Q 3706 1856 3706 1288 
Q 3706 609 3251 259 
Q 2797 -91 1919 -91 
Q 1588 -91 1214 -16 
Q 841 59 441 206 
L 441 856 
Q 825 641 1194 531 
Q 1563 422 1919 422 
Q 2459 422 2753 634 
Q 3047 847 3047 1241 
Q 3047 1584 2836 1778 
Q 2625 1972 2144 2069 
L 1759 2144 
Q 1053 2284 737 2584 
Q 422 2884 422 3419 
Q 422 4038 858 4394 
Q 1294 4750 2059 4750 
Q 2388 4750 2728 4690 
Q 3069 4631 3425 4513 
z
" transform="scale(0.015625)"/>
     </defs>
     <use xlink:href="#DejaVuSans-53"/>
     <use xlink:href="#DejaVuSans-74" x="63.476562"/>
     <use xlink:href="#DejaVuSans-65" x="102.685547"/>
     <use xlink:href="#DejaVuSans-6c" x="164.208984"/>
     <use xlink:href="#DejaVuSans-61" x="191.992188"/>
     <use xlink:href="#DejaVuSans-72" x="253.271484"/>
     <use xlink:href="#DejaVuSans-61" x="294.384766"/>
    </g>
   </g>
   <g id="text_19">
    <!-- Enbrel -->
    <g style="fill: #222222" transform="translate(396.800063 184.301819) scale(0.062 -0.062)">
     <defs>
      <path id="DejaVuSans-62" d="M 3116 1747 
Q 3116 2381 2855 2742 
Q 2594 3103 2138 3103 
Q 1681 3103 1420 2742 
Q 1159 2381 1159 1747 
Q 1159 1113 1420 752 
Q 1681 391 2138 391 
Q 2594 391 2855 752 
Q 3116 1113 3116 1747 
z
M 1159 2969 
Q 1341 3281 1617 3432 
Q 1894 3584 2278 3584 
Q 2916 3584 3314 3078 
Q 3713 2572 3713 1747 
Q 3713 922 3314 415 
Q 2916 -91 2278 -91 
Q 1894 -91 1617 61 
Q 1341 213 1159 525 
L 1159 0 
L 581 0 
L 581 4863 
L 1159 4863 
L 1159 2969 
z
" transform="scale(0.015625)"/>
     </defs>
     <use xlink:href="#DejaVuSans-45"/>
     <use xlink:href="#DejaVuSans-6e" x="63.183594"/>
     <use xlink:href="#DejaVuSans-62" x="126.5625"/>
     <use xlink:href="#DejaVuSans-72" x="190.039062"/>
     <use xlink:href="#DejaVuSans-65" x="228.902344"/>
     <use xlink:href="#DejaVuSans-6c" x="290.425781"/>
    </g>
   </g>
   <g id="text_20">
    <!-- NovoLog -->
    <g style="fill: #222222" transform="translate(315.595319 190.595792) scale(0.062 -0.062)">
     <defs>
      <path id="DejaVuSans-4e" d="M 628 4666 
L 1478 4666 
L 3547 763 
L 3547 4666 
L 4159 4666 
L 4159 0 
L 3309 0 
L 1241 3903 
L 1241 0 
L 628 0 
L 628 4666 
z
" transform="scale(0.015625)"/>
     </defs>
     <use xlink:href="#DejaVuSans-4e"/>
     <use xlink:href="#DejaVuSans-6f" x="74.804688"/>
     <use xlink:href="#DejaVuSans-76" x="135.986328"/>
     <use xlink:href="#DejaVuSans-6f" x="195.166016"/>
     <use xlink:href="#DejaVuSans-4c" x="256.347656"/>
     <use xlink:href="#DejaVuSans-6f" x="310.310547"/>
     <use xlink:href="#DejaVuSans-67" x="371.492188"/>
    </g>
   </g>
   <g id="text_21">
    <!-- Orencia -->
    <g style="fill: #222222" transform="translate(290.4712 213.074572) scale(0.062 -0.062)">
     <use xlink:href="#DejaVuSans-4f"/>
     <use xlink:href="#DejaVuSans-72" x="78.710938"/>
     <use xlink:href="#DejaVuSans-65" x="117.574219"/>
     <use xlink:href="#DejaVuSans-6e" x="179.097656"/>
     <use xlink:href="#DejaVuSans-63" x="242.476562"/>
     <use xlink:href="#DejaVuSans-69" x="297.457031"/>
     <use xlink:href="#DejaVuSans-61" x="325.240234"/>
    </g>
   </g>
   <g id="text_22">
    <!-- Cosentyx -->
    <g style="fill: #222222" transform="translate(191.619754 244.952816) scale(0.062 -0.062)">
     <defs>
      <path id="DejaVuSans-43" d="M 4122 4306 
L 4122 3641 
Q 3803 3938 3442 4084 
Q 3081 4231 2675 4231 
Q 1875 4231 1450 3742 
Q 1025 3253 1025 2328 
Q 1025 1406 1450 917 
Q 1875 428 2675 428 
Q 3081 428 3442 575 
Q 3803 722 4122 1019 
L 4122 359 
Q 3791 134 3420 21 
Q 3050 -91 2638 -91 
Q 1578 -91 968 557 
Q 359 1206 359 2328 
Q 359 3453 968 4101 
Q 1578 4750 2638 4750 
Q 3056 4750 3426 4639 
Q 3797 4528 4122 4306 
z
" transform="scale(0.015625)"/>
     </defs>
     <use xlink:href="#DejaVuSans-43"/>
     <use xlink:href="#DejaVuSans-6f" x="69.824219"/>
     <use xlink:href="#DejaVuSans-73" x="131.005859"/>
     <use xlink:href="#DejaVuSans-65" x="183.105469"/>
     <use xlink:href="#DejaVuSans-6e" x="244.628906"/>
     <use xlink:href="#DejaVuSans-74" x="308.007812"/>
     <use xlink:href="#DejaVuSans-79" x="347.216797"/>
     <use xlink:href="#DejaVuSans-78" x="406.396484"/>
    </g>
   </g>
   <g id="text_23">
    <!-- Spend vs. how long a drug keeps earning new indications (40 negotiated drugs) -->
    <g style="fill: #222222" transform="translate(42.750313 15.178359) scale(0.105 -0.105)">
     <defs>
      <path id="DejaVuSans-2e" d="M 684 794 
L 1344 794 
L 1344 0 
L 684 0 
L 684 794 
z
" transform="scale(0.015625)"/>
      <path id="DejaVuSans-68" d="M 3513 2113 
L 3513 0 
L 2938 0 
L 2938 2094 
Q 2938 2591 2744 2837 
Q 2550 3084 2163 3084 
Q 1697 3084 1428 2787 
Q 1159 2491 1159 1978 
L 1159 0 
L 581 0 
L 581 4863 
L 1159 4863 
L 1159 2956 
Q 1366 3272 1645 3428 
Q 1925 3584 2291 3584 
Q 2894 3584 3203 3211 
Q 3513 2838 3513 2113 
z
" transform="scale(0.015625)"/>
      <path id="DejaVuSans-6b" d="M 581 4863 
L 1159 4863 
L 1159 1991 
L 2875 3500 
L 3609 3500 
L 1753 1863 
L 3688 0 
L 2938 0 
L 1159 1709 
L 1159 0 
L 581 0 
L 581 4863 
z
" transform="scale(0.015625)"/>
      <path id="DejaVuSans-34" d="M 2419 4116 
L 825 1625 
L 2419 1625 
L 2419 4116 
z
M 2253 4666 
L 3047 4666 
L 3047 1625 
L 3713 1625 
L 3713 1100 
L 3047 1100 
L 3047 0 
L 2419 0 
L 2419 1100 
L 313 1100 
L 313 1709 
L 2253 4666 
z
" transform="scale(0.015625)"/>
     </defs>
     <use xlink:href="#DejaVuSans-53"/>
     <use xlink:href="#DejaVuSans-70" x="63.476562"/>
     <use xlink:href="#DejaVuSans-65" x="126.953125"/>
     <use xlink:href="#DejaVuSans-6e" x="188.476562"/>
     <use xlink:href="#DejaVuSans-64" x="251.855469"/>
     <use xlink:href="#DejaVuSans-20" x="315.332031"/>
     <use xlink:href="#DejaVuSans-76" x="347.119141"/>
     <use xlink:href="#DejaVuSans-73" x="406.298828"/>
     <use xlink:href="#DejaVuSans-2e" x="458.398438"/>
     <use xlink:href="#DejaVuSans-20" x="490.185547"/>
     <use xlink:href="#DejaVuSans-68" x="521.972656"/>
     <use xlink:href="#DejaVuSans-6f" x="585.351562"/>
     <use xlink:href="#DejaVuSans-77" x="646.533203"/>
     <use xlink:href="#DejaVuSans-20" x="728.320312"/>
     <use xlink:href="#DejaVuSans-6c" x="760.107422"/>
     <use xlink:href="#DejaVuSans-6f" x="787.890625"/>
     <use xlink:href="#DejaVuSans-6e" x="849.072266"/>
     <use xlink:href="#DejaVuSans-67" x="912.451172"/>
     <use xlink:href="#DejaVuSans-20" x="975.927734"/>
     <use xlink:href="#DejaVuSans-61" x="1007.714844"/>
     <use xlink:href="#DejaVuSans-20" x="1068.994141"/>
     <use xlink:href="#DejaVuSans-64" x="1100.78125"/>
     <use xlink:href="#DejaVuSans-72" x="1164.257812"/>
     <use xlink:href="#DejaVuSans-75" x="1205.371094"/>
     <use xlink:href="#DejaVuSans-67" x="1268.75"/>
     <use xlink:href="#DejaVuSans-20" x="1332.226562"/>
     <use xlink:href="#DejaVuSans-6b" x="1364.013672"/>
     <use xlink:href="#DejaVuSans-65" x="1418.298828"/>
     <use xlink:href="#DejaVuSans-65" x="1479.822266"/>
     <use xlink:href="#DejaVuSans-70" x="1541.345703"/>
     <use xlink:href="#DejaVuSans-73" x="1604.822266"/>
     <use xlink:href="#DejaVuSans-20" x="1656.921875"/>
     <use xlink:href="#DejaVuSans-65" x="1688.708984"/>
     <use xlink:href="#DejaVuSans-61" x="1750.232422"/>
     <use xlink:href="#DejaVuSans-72" x="1811.511719"/>
     <use xlink:href="#DejaVuSans-6e" x="1850.875"/>
     <use xlink:href="#DejaVuSans-69" x="1914.253906"/>
     <use xlink:href="#DejaVuSans-6e" x="1942.037109"/>
     <use xlink:href="#DejaVuSans-67" x="2005.416016"/>
     <use xlink:href="#DejaVuSans-20" x="2068.892578"/>
     <use xlink:href="#DejaVuSans-6e" x="2100.679688"/>
     <use xlink:href="#DejaVuSans-65" x="2164.058594"/>
     <use xlink:href="#DejaVuSans-77" x="2225.582031"/>
     <use xlink:href="#DejaVuSans-20" x="2307.369141"/>
     <use xlink:href="#DejaVuSans-69" x="2339.15625"/>
     <use xlink:href="#DejaVuSans-6e" x="2366.939453"/>
     <use xlink:href="#DejaVuSans-64" x="2430.318359"/>
     <use xlink:href="#DejaVuSans-69" x="2493.794922"/>
     <use xlink:href="#DejaVuSans-63" x="2521.578125"/>
     <use xlink:href="#DejaVuSans-61" x="2576.558594"/>
     <use xlink:href="#DejaVuSans-74" x="2637.837891"/>
     <use xlink:href="#DejaVuSans-69" x="2677.046875"/>
     <use xlink:href="#DejaVuSans-6f" x="2704.830078"/>
     <use xlink:href="#DejaVuSans-6e" x="2766.011719"/>
     <use xlink:href="#DejaVuSans-73" x="2829.390625"/>
     <use xlink:href="#DejaVuSans-20" x="2881.490234"/>
     <use xlink:href="#DejaVuSans-28" x="2913.277344"/>
     <use xlink:href="#DejaVuSans-34" x="2952.291016"/>
     <use xlink:href="#DejaVuSans-30" x="3015.914062"/>
     <use xlink:href="#DejaVuSans-20" x="3079.537109"/>
     <use xlink:href="#DejaVuSans-6e" x="3111.324219"/>
     <use xlink:href="#DejaVuSans-65" x="3174.703125"/>
     <use xlink:href="#DejaVuSans-67" x="3236.226562"/>
     <use xlink:href="#DejaVuSans-6f" x="3299.703125"/>
     <use xlink:href="#DejaVuSans-74" x="3360.884766"/>
     <use xlink:href="#DejaVuSans-69" x="3400.09375"/>
     <use xlink:href="#DejaVuSans-61" x="3427.876953"/>
     <use xlink:href="#DejaVuSans-74" x="3489.15625"/>
     <use xlink:href="#DejaVuSans-65" x="3528.365234"/>
     <use xlink:href="#DejaVuSans-64" x="3589.888672"/>
     <use xlink:href="#DejaVuSans-20" x="3653.365234"/>
     <use xlink:href="#DejaVuSans-64" x="3685.152344"/>
     <use xlink:href="#DejaVuSans-72" x="3748.628906"/>
     <use xlink:href="#DejaVuSans-75" x="3789.742188"/>
     <use xlink:href="#DejaVuSans-67" x="3853.121094"/>
     <use xlink:href="#DejaVuSans-73" x="3916.597656"/>
     <use xlink:href="#DejaVuSans-29" x="3968.697266"/>
    </g>
   </g>
   <g id="legend_1">
    <g id="PathCollection_3">
     <defs>
      <path id="m3924e32858" d="M 0 4.123106 
C 1.09346 4.123106 2.142283 3.688669 2.915476 2.915476 
C 3.688669 2.142283 4.123106 1.09346 4.123106 0 
C 4.123106 -1.09346 3.688669 -2.142283 2.915476 -2.915476 
C 2.142283 -3.688669 1.09346 -4.123106 0 -4.123106 
C -1.09346 -4.123106 -2.142283 -3.688669 -2.915476 -2.915476 
C -3.688669 -2.142283 -4.123106 -1.09346 -4.123106 0 
C -4.123106 1.09346 -3.688669 2.142283 -2.915476 2.915476 
C -2.142283 3.688669 -1.09346 4.123106 0 4.123106 
z
" style="stroke: #ffffff; stroke-opacity: 0.7; stroke-width: 0.6"/>
     </defs>
     <g>
      <use xlink:href="#m3924e32858" x="457.50803" y="297.53125" style="fill: #1b6ca8; fill-opacity: 0.7; stroke: #ffffff; stroke-opacity: 0.7; stroke-width: 0.6"/>
     </g>
    </g>
    <g id="text_24">
     <!-- small molecule -->
     <g transform="translate(471.00803 299.5) scale(0.075 -0.075)">
      <use xlink:href="#DejaVuSans-73"/>
      <use xlink:href="#DejaVuSans-6d" x="52.099609"/>
      <use xlink:href="#DejaVuSans-61" x="149.511719"/>
      <use xlink:href="#DejaVuSans-6c" x="210.791016"/>
      <use xlink:href="#DejaVuSans-6c" x="238.574219"/>
      <use xlink:href="#DejaVuSans-20" x="266.357422"/>
      <use xlink:href="#DejaVuSans-6d" x="298.144531"/>
      <use xlink:href="#DejaVuSans-6f" x="395.556641"/>
      <use xlink:href="#DejaVuSans-6c" x="456.738281"/>
      <use xlink:href="#DejaVuSans-65" x="484.521484"/>
      <use xlink:href="#DejaVuSans-63" x="546.044922"/>
      <use xlink:href="#DejaVuSans-75" x="601.025391"/>
      <use xlink:href="#DejaVuSans-6c" x="664.404297"/>
      <use xlink:href="#DejaVuSans-65" x="692.1875"/>
     </g>
    </g>
    <g id="PathCollection_4">
     <defs>
      <path id="m2abc34c8c9" d="M 0 4.123106 
C 1.09346 4.123106 2.142283 3.688669 2.915476 2.915476 
C 3.688669 2.142283 4.123106 1.09346 4.123106 0 
C 4.123106 -1.09346 3.688669 -2.142283 2.915476 -2.915476 
C 2.142283 -3.688669 1.09346 -4.123106 0 -4.123106 
C -1.09346 -4.123106 -2.142283 -3.688669 -2.915476 -2.915476 
C -3.688669 -2.142283 -4.123106 -1.09346 -4.123106 0 
C -4.123106 1.09346 -3.688669 2.142283 -2.915476 2.915476 
C -2.142283 3.688669 -1.09346 4.123106 0 4.123106 
z
" style="stroke: #ffffff; stroke-opacity: 0.7; stroke-width: 0.6"/>
     </defs>
     <g>
      <use xlink:href="#m2abc34c8c9" x="457.50803" y="308.539844" style="fill: #d4761f; fill-opacity: 0.7; stroke: #ffffff; stroke-opacity: 0.7; stroke-width: 0.6"/>
     </g>
    </g>
    <g id="text_25">
     <!-- biologic -->
     <g transform="translate(471.00803 310.508594) scale(0.075 -0.075)">
      <use xlink:href="#DejaVuSans-62"/>
      <use xlink:href="#DejaVuSans-69" x="63.476562"/>
      <use xlink:href="#DejaVuSans-6f" x="91.259766"/>
      <use xlink:href="#DejaVuSans-6c" x="152.441406"/>
      <use xlink:href="#DejaVuSans-6f" x="180.224609"/>
      <use xlink:href="#DejaVuSans-67" x="241.40625"/>
      <use xlink:href="#DejaVuSans-69" x="304.882812"/>
      <use xlink:href="#DejaVuSans-63" x="332.666016"/>
     </g>
    </g>
   </g>
  </g>
 </g>
 <defs>
  <clipPath id="peb9884d6f3">
   <rect x="42.750313" y="23.178359" width="491.535452" height="295.64"/>
  </clipPath>
 </defs>
</svg>
